<?xml version="1.0" standalone="no"?>
<!DOCTYPE svg PUBLIC "-//W3C//DTD SVG 20010904//EN"
 "http://www.w3.org/TR/2001/REC-SVG-20010904/DTD/svg10.dtd">
<svg version="1.0" xmlns="http://www.w3.org/2000/svg"
 width="703.000000pt" height="650.000000pt" viewBox="0 0 703.000000 650.000000"
 preserveAspectRatio="xMidYMid meet">
<metadata>
Created by potrace 1.16, written by Peter Selinger 2001-2019
</metadata>
<g transform="translate(0.000000,650.000000) scale(0.100000,-0.100000)"
fill="#000000" stroke="none">
<path d="M0 3250 l0 -3250 3515 0 3515 0 0 3250 0 3250 -3515 0 -3515 0 0
-3250z m3030 2948 c0 -120 12 -248 21 -242 5 3 9 25 9 48 0 24 3 57 6 73 6 30
7 30 44 21 27 -7 40 -17 44 -33 3 -12 15 -25 26 -28 12 -3 20 -14 21 -29 2
-42 4 -48 14 -48 6 -1 12 14 15 32 l5 33 12 -30 c8 -19 14 -113 18 -254 l5
-224 27 -17 c73 -44 122 -68 127 -63 3 4 6 84 6 178 0 95 3 186 6 203 6 29 7
30 38 20 17 -6 34 -14 38 -17 5 -4 10 -106 14 -226 6 -247 7 -250 85 -269 l27
-6 7 165 c6 149 14 191 29 167 2 -4 8 -92 12 -195 6 -164 9 -188 23 -185 14 3
17 28 21 170 5 153 10 191 26 176 9 -10 25 -197 24 -288 -1 -47 -1 -90 -1 -96
1 -15 110 -66 127 -60 11 4 14 40 14 170 0 90 3 171 6 180 10 25 33 19 40 -11
10 -49 13 -53 35 -53 22 0 89 -62 89 -83 0 -7 9 1 19 17 15 22 17 34 10 49
-15 26 -3 50 21 44 15 -4 20 0 20 13 0 10 -5 20 -12 22 -6 2 -9 11 -6 19 11
30 228 23 228 -7 0 -8 6 -11 15 -7 14 5 14 8 -2 25 -17 19 -17 19 9 13 27 -7
108 27 108 45 0 6 7 10 16 10 24 0 44 25 45 57 l1 28 8 -30 c4 -16 7 -118 7
-225 0 -120 -3 -172 -7 -135 -4 35 -7 46 -8 28 -1 -18 -6 -33 -12 -33 -5 0 -7
7 -4 15 4 9 0 15 -10 15 -9 0 -16 -7 -16 -15 0 -20 -10 -19 -26 3 -12 15 -13
14 -14 -10 0 -16 -3 -28 -7 -28 -24 -1 -35 -18 -24 -38 10 -18 7 -21 -22 -28
-17 -4 -35 -8 -39 -8 -4 -1 -12 -6 -19 -13 -9 -9 -8 -18 7 -40 16 -23 20 -53
24 -173 5 -141 6 -145 28 -148 12 -2 22 -2 23 0 0 2 2 41 5 88 6 125 14 183
24 200 5 8 10 10 10 4 0 -6 11 -16 24 -22 23 -10 24 -15 31 -171 6 -146 15
-192 28 -143 3 9 5 -15 6 -54 1 -44 6 -76 14 -82 9 -8 12 4 10 59 -1 38 3 69
8 69 5 0 9 -9 9 -20 0 -17 3 -19 19 -11 17 10 42 83 46 136 3 39 24 74 49 81
14 3 25 9 24 13 0 3 1 26 2 51 2 46 4 43 15 -21 4 -29 11 -38 30 -43 14 -4 25
-13 25 -20 0 -8 7 -17 16 -20 8 -3 14 -14 13 -23 -4 -26 11 -66 32 -84 10 -9
23 -28 29 -43 5 -15 15 -24 20 -21 12 8 40 -54 40 -89 0 -14 9 -40 21 -58 l21
-33 -7 30 c-8 32 -8 44 3 150 5 52 11 70 22 70 9 0 14 -8 12 -20 -2 -11 1 -16
5 -10 12 15 54 37 60 31 9 -8 39 36 47 67 8 34 37 36 59 5 13 -19 16 -20 16
-5 1 9 8 17 16 17 9 0 18 7 22 16 4 11 8 12 13 4 12 -19 20 51 11 96 -4 22 -4
51 2 65 5 13 6 47 2 74 -4 28 -9 64 -10 80 -2 17 -4 35 -5 40 0 6 -5 2 -11 -8
-6 -9 -7 -26 -4 -37 4 -11 2 -20 -3 -20 -5 0 -10 -45 -11 -100 -2 -108 -7
-133 -25 -127 -7 2 -12 42 -14 109 -2 80 -6 107 -17 111 -16 7 -35 -67 -35
-136 0 -23 -4 -48 -8 -55 -10 -16 -42 -5 -42 14 0 8 -7 14 -15 14 -9 0 -15 10
-16 23 -1 16 -2 18 -6 5 -10 -39 -20 -14 -29 69 -10 94 -27 119 -38 52 -5 -34
-10 -40 -24 -34 -9 4 -24 9 -33 12 -23 7 -29 62 -29 308 0 116 -1 215 0 222 0
6 9 9 20 6 11 -3 26 0 34 6 18 15 26 -25 26 -124 0 -75 6 -105 20 -105 4 0 10
80 12 178 2 128 7 184 17 202 l14 25 9 -30 c16 -53 13 -189 -5 -216 -11 -17
-14 -38 -10 -71 l6 -48 52 0 c30 0 60 -3 69 -6 13 -5 16 3 17 52 l1 59 9 -44
c12 -64 39 -129 55 -135 8 -3 14 -18 15 -33 0 -28 0 -28 10 -5 5 13 7 28 3 33
-3 5 0 17 5 26 8 14 10 7 11 -31 0 -40 5 -55 26 -77 25 -26 26 -31 16 -71 -18
-71 -21 -150 -9 -208 l12 -55 55 -4 c63 -4 80 -14 80 -48 0 -13 4 -22 9 -18
11 6 27 -42 35 -102 3 -23 13 -51 23 -62 10 -10 27 -30 38 -43 29 -35 52 -40
93 -21 46 22 69 18 105 -15 15 -14 27 -23 27 -19 0 4 11 0 24 -8 22 -15 27
-15 55 -1 72 38 114 -3 79 -79 -12 -27 -28 -31 -57 -14 -20 13 -91 4 -91 -12
0 -6 -8 -8 -19 -4 -28 8 -33 -18 -13 -70 13 -36 21 -45 40 -45 13 0 32 -5 43
-10 47 -26 66 -131 30 -164 -22 -20 -18 -48 5 -39 8 3 14 9 14 14 0 27 46 102
71 114 57 30 103 14 145 -50 10 -15 26 -25 41 -25 40 0 99 -36 116 -72 29 -63
40 -142 35 -266 -3 -78 -9 -126 -17 -136 -11 -13 -10 -24 4 -66 15 -44 16 -87
11 -363 -7 -356 -17 -480 -42 -508 -10 -11 -30 -19 -50 -19 -53 0 -73 44 -92
197 -13 107 -33 100 -42 -15 -7 -93 -22 -127 -50 -112 -28 15 -30 21 -35 117
-2 48 -10 115 -16 148 -8 43 -9 71 -1 98 10 34 8 42 -9 60 -27 30 -34 64 -21
111 6 23 7 49 2 62 -9 22 -10 22 -222 19 -211 -3 -439 -16 -573 -35 -38 -5
-98 -9 -131 -10 -43 0 -65 -5 -74 -15 -7 -9 -19 -14 -27 -11 -8 3 -11 1 -8 -4
11 -18 -27 -24 -40 -7 -12 17 -65 24 -65 9 0 -7 29 -21 73 -36 9 -3 17 -12 17
-21 0 -8 5 -15 12 -15 6 0 3 -6 -7 -14 -14 -10 -23 -36 -31 -90 -13 -84 -25
-106 -58 -106 -15 0 -27 12 -41 41 -10 23 -21 35 -23 28 -11 -42 -12 -42 -28
-23 -14 18 -15 16 -11 -22 5 -43 -6 -75 -20 -61 -4 5 -9 42 -11 82 -4 63 -1
80 18 110 27 43 37 44 55 3 11 -26 14 -28 15 -12 0 11 7 35 16 53 21 42 10 53
-51 53 -39 0 -53 5 -75 26 -25 26 -26 31 -28 154 -1 102 2 129 14 139 11 9 17
10 22 2 5 -8 15 -6 32 7 20 15 22 20 10 24 -21 8 -69 2 -107 -15 l-32 -13 5
-131 c4 -99 2 -134 -8 -147 -14 -20 -95 -38 -167 -38 -25 0 -66 -9 -90 -20
-45 -21 -141 -27 -141 -10 0 6 -8 10 -19 10 -14 0 -17 -6 -14 -23 4 -18 -2
-25 -29 -34 -18 -7 -51 -15 -73 -18 -22 -3 -52 -8 -66 -11 -34 -6 -79 11 -79
31 0 9 -6 18 -14 21 -24 9 -125 -16 -135 -33 -10 -18 -69 -30 -203 -39 -80 -6
-88 -5 -88 11 0 16 -7 17 -71 11 -39 -4 -83 -12 -98 -18 -24 -10 -25 -11 -6
-18 19 -7 19 -8 -6 -18 -20 -8 -104 -19 -179 -24 -24 -2 -33 3 -24 12 6 6 37
12 68 14 31 1 62 8 69 16 10 10 2 11 -43 5 -30 -3 -113 -13 -185 -20 -71 -8
-211 -23 -310 -34 -99 -11 -272 -27 -385 -36 -113 -9 -245 -20 -294 -26 -60
-6 -93 -6 -100 1 -15 15 -7 18 79 23 44 3 152 13 240 23 l160 17 0 218 c0 218
0 218 -22 224 -14 3 -23 13 -23 24 0 14 8 18 37 19 20 1 41 -4 45 -11 4 -6 8
-115 8 -241 l0 -228 88 6 c110 9 122 13 115 34 -5 15 -4 14 9 -1 12 -16 21
-17 78 -8 36 5 80 13 99 18 l34 8 -26 12 c-26 12 -38 43 -17 43 6 0 10 12 10
26 0 16 4 23 12 18 8 -5 8 -3 2 7 -5 8 -10 30 -11 49 -1 19 -4 79 -8 133 -3
59 -2 104 4 115 7 10 11 12 11 4 0 -7 5 -10 11 -6 12 7 8 -72 -6 -113 -4 -14
-3 -23 3 -23 6 0 12 8 15 18 5 25 20 -211 15 -252 -3 -30 -1 -36 15 -36 17 0
18 12 16 213 -1 116 -4 231 -7 254 -4 40 -7 43 -44 54 -54 14 -67 2 -49 -48
10 -27 11 -38 2 -41 -6 -2 -11 -11 -12 -20 0 -14 -2 -13 -9 3 -5 11 -9 75 -9
141 -1 143 8 134 -138 134 -128 0 -440 26 -586 49 -67 11 -161 25 -209 32 -66
10 -88 17 -89 29 -1 13 -2 13 -5 0 -3 -11 -16 -14 -49 -12 -25 2 -45 8 -45 13
0 5 3 8 8 8 31 -5 42 3 42 31 0 26 -4 30 -27 31 -16 0 -43 2 -60 3 -28 3 -33
0 -34 -18 -1 -15 -3 -17 -6 -4 -5 20 -25 28 -52 21 -34 -9 -26 -40 12 -47 17
-4 50 -11 72 -15 l40 -8 -45 -2 c-39 0 -111 6 -412 35 -66 6 -98 23 -38 19 19
-1 30 3 30 12 0 7 7 13 15 13 8 0 15 -7 15 -16 0 -10 5 -14 15 -10 8 3 27 1
41 -4 14 -6 36 -7 48 -4 l24 6 -22 22 c-19 21 -102 43 -161 44 -31 0 -218 32
-224 38 -3 3 32 5 79 4 47 -1 91 -1 98 -1 10 1 12 15 7 57 -4 42 -3 54 6 48 9
-5 10 -2 4 12 -9 21 -18 705 -10 742 3 12 12 22 20 22 8 0 15 5 15 10 0 6 -8
10 -17 8 -18 -3 -18 -1 -13 130 0 8 9 12 23 10 20 -3 22 -8 23 -77 1 -50 6
-76 15 -82 11 -7 14 -55 16 -231 1 -123 3 -277 4 -343 l2 -120 13 195 c7 107
18 227 25 267 7 42 9 97 5 133 -4 33 -3 60 2 60 5 0 9 16 10 36 3 74 12 45 12
-37 0 -81 -17 -712 -23 -814 l-2 -50 35 0 35 0 11 453 c7 249 14 456 18 459 3
3 12 3 21 0 13 -6 14 -38 10 -259 -2 -139 0 -246 4 -239 8 12 21 123 25 216 7
135 11 133 16 -10 l6 -160 2 161 c1 89 5 181 8 206 6 42 8 44 36 40 l29 -4 -6
-382 c-3 -209 -8 -409 -10 -442 l-5 -62 102 -11 c57 -7 114 -14 127 -17 l24
-5 -5 288 c-2 158 -1 329 2 378 7 102 8 95 16 -180 4 -110 8 -202 10 -204 2
-2 4 107 4 242 0 158 -4 247 -10 247 -5 0 -10 17 -10 38 0 37 0 37 40 36 22
-1 45 -2 50 -3 6 -1 10 -12 10 -26 0 -25 1 -25 79 -25 l79 0 6 -31 c3 -17 6
-51 6 -75 0 -25 5 -44 11 -44 8 0 10 -89 9 -302 -3 -385 -3 -379 14 -372 8 3
17 1 21 -5 22 -36 25 17 25 385 l0 395 23 -7 c12 -3 26 -13 30 -20 5 -8 25
-14 47 -14 22 0 40 -4 40 -10 0 -5 24 -10 53 -10 29 0 57 -4 63 -9 5 -5 20
-11 33 -13 l25 -3 3 -215 c6 -333 17 -535 28 -532 11 2 8 208 -4 367 -4 50 -4
108 0 130 5 22 8 64 9 93 0 28 3 52 8 52 14 0 29 -15 31 -30 4 -41 20 -381 23
-495 l3 -130 39 -3 39 -3 -6 346 -7 346 33 -3 32 -3 2 -200 c4 -311 13 -486
27 -489 6 -2 28 -9 48 -15 28 -9 43 -9 59 -1 26 14 58 20 123 23 l50 2 -3 140
c-2 77 -3 147 -3 155 -1 31 13 237 18 277 7 53 33 49 35 -6 1 -23 3 -28 6 -13
5 26 40 31 50 6 4 -12 13 -8 44 22 32 31 41 35 54 24 9 -7 15 -28 15 -51 0
-22 5 -39 10 -39 6 0 10 15 10 34 0 19 5 38 10 41 14 8 -6 35 -25 35 -8 0 -60
16 -117 35 -93 31 -103 37 -102 58 1 23 -2 25 -79 30 -44 4 -81 8 -83 9 -1 2
-4 16 -6 31 -2 15 -7 27 -11 27 -4 0 -11 0 -16 0 -5 0 -7 -9 -4 -20 3 -11 1
-20 -4 -20 -4 0 -57 16 -117 35 -60 19 -123 37 -140 41 -17 3 -35 10 -41 14
-5 4 -26 11 -45 15 -47 10 -202 66 -197 71 2 3 16 0 30 -5 22 -9 25 -7 23 15
0 13 -7 24 -13 24 -7 0 -13 5 -13 11 0 5 -5 7 -12 3 -6 -4 -8 -3 -5 3 7 11
-39 26 -84 27 -19 1 -25 5 -21 15 4 10 1 13 -11 8 -9 -3 -17 -2 -17 2 0 5 4
11 9 13 5 2 15 129 22 283 18 408 19 435 31 435 6 0 8 -10 4 -25 -12 -47 -27
-698 -16 -709 5 -5 12 -8 14 -5 3 2 6 52 7 111 3 110 11 130 25 55 l8 -42 7
40 c5 22 8 130 8 240 0 110 1 232 2 270 l2 70 7 -50 c5 -27 9 -202 9 -387 1
-186 4 -338 9 -338 4 0 16 -3 27 -6 20 -5 20 -2 14 138 -4 79 -8 172 -9 208
-1 46 -4 58 -9 40 -10 -35 -24 108 -15 146 l8 29 7 -25 c5 -19 8 -11 9 30 3
52 30 -368 33 -512 1 -48 6 -69 16 -73 8 -3 16 -4 18 -1 2 2 7 92 10 200 3
108 8 194 10 192 2 -2 6 -55 9 -117 3 -63 9 -118 14 -123 6 -6 5 -15 -2 -24
-9 -10 -9 -15 2 -22 7 -4 10 -15 7 -23 -3 -9 -1 -17 4 -19 13 -4 19 -76 6 -81
-5 -1 1 -8 14 -14 l24 -10 3 276 c4 360 8 470 16 478 3 3 6 -6 6 -20 0 -15 5
-27 11 -27 5 0 8 -4 5 -9 -11 -17 6 -40 27 -38 l22 2 0 -348 c0 -227 3 -346
10 -344 6 2 10 63 10 155 0 82 3 154 8 158 4 4 7 -70 7 -164 0 -137 3 -172 13
-172 11 0 13 48 11 263 -2 186 0 242 6 192 5 -38 10 -160 12 -269 l3 -200 55
-14 c30 -7 59 -18 64 -23 6 -5 18 -9 28 -9 17 0 18 15 18 224 0 123 3 244 6
270 7 48 22 61 31 26 3 -11 14 -20 24 -20 10 0 21 -4 24 -10 8 -13 45 -13 45
-1 0 5 -6 12 -12 14 -7 3 2 6 20 6 18 1 44 -6 58 -15 l24 -17 -1 -267 c-1
-147 1 -273 5 -278 9 -16 141 -56 158 -49 12 4 16 52 21 277 4 181 10 277 18
286 20 25 49 17 55 -15 5 -26 9 -28 24 -18 21 13 50 -5 50 -31 0 -14 1 -14 13
0 6 9 21 18 32 20 26 4 32 36 9 45 -30 11 -158 86 -186 109 -15 12 -28 33 -30
50 -2 22 -8 29 -24 29 -12 0 -35 11 -51 25 -16 14 -42 32 -58 40 -40 21 -42
42 -34 270 4 107 8 230 8 273 1 44 5 77 11 77 6 0 10 -34 10 -82z m2544 -207
c3 -4 32 -14 65 -20 33 -7 63 -16 66 -20 2 -5 21 -12 41 -15 57 -11 86 -27 74
-41 -8 -9 -6 -14 5 -19 8 -3 15 -12 15 -20 0 -8 21 -22 48 -32 26 -10 54 -23
63 -31 8 -7 20 -13 25 -13 23 -1 53 -50 64 -105 19 -95 32 -135 45 -135 7 0
20 -11 29 -25 9 -14 23 -25 31 -25 10 0 15 -10 15 -30 0 -17 7 -41 15 -53 13
-21 12 -25 -21 -62 -34 -39 -35 -42 -29 -100 4 -33 12 -64 19 -70 28 -24 56
-70 56 -92 0 -17 -10 -29 -32 -41 -18 -9 -45 -29 -60 -44 -23 -22 -27 -33 -22
-55 10 -42 41 -70 85 -77 30 -5 44 -14 59 -39 22 -36 26 -84 9 -120 -7 -17 -8
-35 -1 -60 l10 -37 -38 0 c-29 0 -47 7 -68 28 -15 15 -51 43 -80 62 -35 23
-53 44 -57 62 -4 15 -11 31 -17 34 -5 3 -18 26 -29 50 -10 24 -30 56 -44 71
-14 16 -25 33 -25 40 0 7 -11 24 -25 39 -14 15 -25 25 -25 22 0 -3 -17 11 -39
31 -21 20 -46 42 -55 49 -9 7 -16 23 -16 36 0 12 -11 33 -25 46 -14 13 -25 30
-25 38 0 17 -31 60 -79 109 -17 18 -31 43 -31 54 0 12 -11 45 -24 73 -51 110
-66 146 -77 193 -12 49 -33 95 -57 125 -12 14 -11 18 7 28 13 7 21 21 22 38 0
69 8 124 19 137 6 8 28 16 48 18 20 2 42 4 49 5 6 1 14 -2 17 -7z m-3654 -391
l0 -329 32 -15 c17 -9 33 -16 35 -16 1 0 3 22 3 49 0 27 7 64 15 82 14 33 14
31 15 -61 0 -65 3 -90 10 -80 6 10 10 11 10 3 0 -7 5 -13 10 -13 6 0 11 121
12 338 1 185 4 299 5 252 2 -46 8 -87 12 -90 9 -5 22 -470 14 -500 -3 -10 -13
-20 -24 -23 -10 -3 -17 -1 -13 4 3 5 -9 9 -26 9 -20 0 -29 4 -24 11 4 8 0 8
-15 0 -12 -7 -21 -8 -21 -2 0 8 -63 51 -75 51 -2 0 -6 -8 -8 -17 -4 -14 -5
-13 -6 4 0 12 -6 25 -12 29 -9 5 -10 60 -5 198 3 105 6 260 7 344 l1 153 24
-26 24 -26 0 -329z m2971 119 c8 -81 11 -509 3 -509 -3 0 -27 9 -54 21 -40 17
-49 26 -53 52 -5 36 5 511 11 485 5 -24 29 -23 42 1 5 11 18 18 27 17 14 -2
19 -16 24 -67z m-262 -39 c1 20 3 22 11 10 8 -12 12 -13 19 -2 4 8 21 12 37
10 23 -2 31 2 40 22 11 24 12 22 19 -25 10 -63 -3 -417 -15 -429 -7 -7 -10 -1
-10 15 0 13 -4 19 -8 14 -8 -12 -27 -13 -38 -2 -4 4 -18 7 -31 7 -20 0 -23 5
-25 43 -1 34 -3 30 -8 -23 -4 -37 -7 42 -7 180 0 135 3 225 7 200 4 -26 8 -34
9 -20z m-3760 -587 c1 -126 3 -248 6 -273 9 -81 17 -450 11 -476 -6 -24 -10
-25 -44 -19 -46 8 -66 25 -30 25 30 0 53 23 44 45 -3 8 -16 15 -30 15 -23 0
-24 4 -29 78 -10 165 -6 650 6 655 9 3 12 -20 13 -77 2 -117 14 -236 25 -236
7 0 16 256 11 340 -1 33 9 150 13 150 2 0 4 -102 4 -227z m-134 135 c25 -4 24
12 25 -487 0 -397 -1 -417 -34 -405 -17 6 -86 12 -135 13 l-44 1 7 50 c6 41 4
51 -10 57 -21 8 -34 -13 -34 -59 0 -43 -12 -47 -49 -19 -20 15 -21 19 -7 24
15 6 15 9 1 31 -17 25 -13 66 6 66 12 0 12 137 -1 145 -7 4 -7 12 0 25 5 10
10 51 10 92 0 71 0 72 17 48 16 -22 21 -54 26 -165 1 -26 6 -39 15 -37 6 1 12
-5 12 -13 0 -9 -6 -12 -17 -8 -15 5 -15 3 2 -14 18 -18 21 -18 26 -4 4 9 9
150 12 314 3 163 10 303 14 310 4 6 10 -177 13 -408 l5 -420 32 0 33 0 1 375
c1 466 2 502 13 519 7 11 12 10 25 -7 9 -11 25 -22 36 -24z m-365 -308 c5 0 8
-12 8 -27 0 -16 7 -56 16 -91 17 -68 22 -228 7 -251 -5 -8 -16 -11 -24 -8 -11
4 -16 -6 -21 -40 -3 -25 -6 -61 -6 -79 0 -19 -4 -34 -9 -34 -12 0 -19 43 -10
66 11 27 11 376 0 370 -20 -13 -27 25 -21 121 4 82 9 106 25 123 l20 22 3 -86
c1 -47 7 -86 12 -86z m-142 22 c2 38 5 47 20 45 21 -1 24 -20 24 -157 0 -118
-29 -421 -41 -433 -4 -4 -22 0 -39 10 l-31 18 5 124 c3 69 7 128 10 132 2 4 7
65 10 136 4 70 11 139 17 153 10 23 11 21 17 -25 l7 -50 1 47z m1491 -911 c10
-14 14 -77 16 -262 1 -134 5 -311 10 -393 7 -125 6 -148 -6 -144 -10 3 -16 33
-20 109 -4 57 -9 136 -12 174 -11 131 -19 535 -10 535 5 0 15 -8 22 -19z m61
-211 c0 -26 4 -30 38 -36 20 -5 65 -8 99 -8 l63 -1 1 -40 c0 -22 0 -101 -1
-176 -1 -115 1 -137 14 -142 12 -5 16 -22 16 -77 0 -40 -4 -70 -10 -70 -5 0
-10 26 -10 58 0 40 -3 53 -10 42 -5 -8 -10 -36 -10 -61 l0 -45 -47 -3 c-26 -1
-53 -7 -60 -13 -16 -13 -16 -3 -13 295 2 216 1 217 -20 217 -19 0 -21 -4 -15
-30 4 -20 3 -30 -5 -30 -6 0 -8 5 -5 11 4 6 -3 20 -16 32 l-22 21 8 -25 c4
-13 9 -98 11 -189 l2 -165 -13 85 c-16 100 -19 380 -5 380 6 0 10 -13 10 -30z
m2348 -473 c6 -7 11 -95 13 -221 l3 -208 -28 -15 c-15 -8 -30 -12 -33 -10 -2
3 -20 -5 -39 -18 -36 -25 -91 -41 -102 -31 -9 9 -12 50 -21 251 -7 147 -6 184
5 203 8 12 20 22 26 22 6 0 19 7 29 16 13 12 22 13 37 5 16 -9 19 -18 15 -54
-5 -44 9 -87 28 -87 6 0 10 25 9 63 -1 34 1 70 5 80 8 20 38 23 53 4z m-244
-63 c9 -22 7 -447 -2 -460 -6 -10 -72 -42 -87 -43 -3 -1 -27 -12 -54 -25 -66
-34 -232 -88 -249 -81 -19 7 -13 518 6 553 16 28 35 28 53 1 14 -20 14 -20 55
9 77 56 153 43 155 -27 0 -20 4 -15 14 19 8 25 22 50 32 57 24 18 70 16 77 -3z
m374 -41 c18 -16 21 -33 25 -140 4 -117 3 -121 -18 -131 -12 -6 -27 -7 -34 -3
-14 9 -44 245 -35 273 7 23 36 23 62 1z m-2359 -23 c-8 -4 -63 -12 -124 -19
-60 -7 -141 -16 -180 -21 -75 -11 -664 -74 -780 -85 -42 -3 -66 -2 -60 3 15
14 126 29 405 57 140 14 314 32 385 40 72 9 155 18 185 21 30 3 80 9 110 13
57 7 83 4 59 -9z m1412 -16 c32 -39 34 -302 3 -522 -6 -38 -4 -44 15 -49 37
-10 18 -25 -75 -61 -142 -54 -128 -71 -135 173 -3 116 -5 262 -5 325 1 111 2
115 23 118 12 2 35 -6 50 -18 l28 -20 -7 -93 c-4 -50 -11 -170 -15 -266 -8
-166 -7 -174 12 -187 11 -8 28 -14 39 -14 18 0 19 6 12 173 -4 94 -11 228 -16
296 -9 134 -3 161 36 161 12 0 28 -7 35 -16z m-735 -191 c3 -32 11 -64 17 -71
7 -8 14 -98 19 -216 4 -111 8 -220 10 -242 5 -95 0 -118 -37 -142 -37 -26 -55
-22 -55 11 0 35 -38 33 -42 -1 -5 -48 -23 -24 -25 35 -2 32 -10 148 -18 258
-28 362 -27 378 13 356 26 -14 42 -14 42 -1 0 6 -7 10 -15 10 -8 0 -15 5 -15
11 0 5 5 7 10 4 6 -4 24 5 41 19 17 14 34 26 39 26 5 0 12 -26 16 -57z m-203
-210 c10 -271 9 -559 -2 -547 -14 14 -46 716 -33 728 24 24 29 -3 35 -181z
m-434 168 c12 -8 13 -68 7 -377 -7 -383 -13 -487 -27 -479 -4 3 -8 134 -9 291
0 157 -1 289 -1 292 -5 34 3 282 9 282 4 0 13 -4 21 -9z m183 -148 c1 -37 2
-40 5 -15 10 79 18 17 21 -160 2 -106 1 -190 -2 -187 -4 3 -10 33 -15 65 -7
51 -9 40 -11 -86 -5 -280 -4 -272 -28 -281 l-22 -8 0 202 c0 111 -3 273 -7
360 l-6 157 31 0 c31 0 32 -1 34 -47z m1982 -188 c0 -172 -6 -215 -29 -215
-20 0 -23 21 -29 190 -5 123 -3 149 10 168 9 13 23 22 32 20 15 -3 17 -22 16
-163z m-2749 91 c15 -22 12 -36 -41 -222 -31 -110 -60 -203 -65 -208 -4 -5 -5
1 -2 13 3 11 1 21 -3 21 -5 0 -15 14 -23 32 -12 28 -12 37 4 77 10 25 25 76
34 113 9 37 20 70 24 74 4 4 7 22 7 41 0 18 5 33 11 33 5 0 7 5 4 10 -10 16 2
40 19 40 9 0 23 -11 31 -24z m-356 -56 l23 -20 -16 -72 c-9 -40 -21 -86 -26
-103 -5 -16 -12 -52 -15 -80 -7 -49 -13 -77 -36 -151 -8 -26 -8 -39 0 -47 6
-6 11 -25 10 -41 l-1 -31 -12 28 -13 28 -11 -53 c-7 -29 -15 -75 -19 -103 l-8
-50 -7 45 c-3 25 -4 0 -2 -54 3 -55 7 -103 10 -108 3 -5 1 -14 -4 -21 -5 -7
-13 -29 -16 -50 -10 -53 -27 -87 -43 -87 -7 0 -14 8 -14 18 -1 16 -2 16 -6 -1
-4 -14 -8 -16 -19 -6 -14 11 -12 35 6 89 12 36 65 292 95 460 49 274 83 430
93 430 4 -1 18 -10 31 -20z m2819 -66 c2 -27 -2 -83 -8 -124 -7 -41 -12 -111
-12 -155 1 -92 -4 -115 -23 -115 -16 0 -21 28 -29 139 -6 81 -26 124 -26 56 0
-22 -3 -87 -6 -145 -5 -92 -8 -107 -27 -123 -22 -17 -81 -16 -100 2 -7 7 -26
259 -27 354 0 42 3 49 28 59 15 7 36 22 47 35 11 13 31 25 44 28 12 2 29 9 37
16 15 12 72 28 89 25 6 -2 11 -25 13 -52z m-553 -226 c7 -49 10 -177 7 -355
-2 -114 -3 -123 -21 -123 -11 0 -28 -15 -40 -32 -11 -18 -21 -28 -22 -23 -1
15 -19 328 -25 443 -5 95 -5 102 13 102 11 0 28 7 39 15 31 24 42 17 49 -27z
m931 -131 c-11 -148 -19 -190 -37 -208 -11 -11 -24 -19 -30 -19 -8 0 -10 -14
-6 -40 5 -40 -9 -66 -29 -52 -5 4 -11 72 -12 154 l-4 146 50 52 c30 31 55 49
62 45 8 -5 9 -30 6 -78z m-3172 -60 c4 4 6 -14 4 -40 -2 -36 -5 -44 -14 -33
-8 11 -10 0 -8 -44 1 -33 5 -64 9 -69 3 -6 -4 -15 -16 -21 -17 -10 -20 -18
-15 -45 6 -30 -16 -111 -34 -125 -4 -3 -9 -13 -13 -22 -11 -31 -28 -20 -23 15
3 17 8 62 11 99 5 46 11 68 22 72 10 4 13 14 9 33 -3 16 3 64 14 108 11 44 20
89 21 100 0 16 3 15 13 -8 7 -15 16 -24 20 -20z m5274 -523 c4 -91 1 -117 -13
-147 -15 -31 -22 -37 -49 -37 -35 0 -56 15 -56 41 0 10 -5 19 -10 21 -21 7 45
235 77 270 16 18 17 18 32 -9 9 -18 16 -68 19 -139z m-4838 -195 c0 -25 -20
-47 -40 -42 -11 3 -20 0 -20 -6 0 -10 16 -15 47 -14 12 1 11 -12 -3 -195 -3
-39 -9 -70 -14 -67 -5 3 -11 -3 -13 -12 -3 -10 -6 -2 -7 17 -2 28 -5 21 -16
-35 -7 -38 -13 -91 -13 -117 -1 -26 -5 -50 -11 -53 -5 -3 -9 -21 -8 -40 1 -19
-2 -38 -5 -42 -10 -10 -8 41 8 252 29 367 26 345 46 345 11 0 19 5 19 10 0 6
7 10 15 10 8 0 15 -5 15 -11z m4765 -113 c11 -8 24 -12 30 -10 11 4 26 -19 39
-59 7 -23 -19 -87 -36 -87 -31 -1 -59 -80 -28 -80 10 0 25 -58 21 -85 -1 -11
-11 -29 -22 -40 -20 -20 -20 -20 -40 4 -13 16 -18 33 -15 47 3 12 -1 41 -9 64
-17 49 -19 96 -5 105 7 4 8 29 4 67 -6 53 -4 63 11 75 23 16 27 16 50 -1z
m-1904 -1100 c24 -7 79 -21 122 -31 42 -10 77 -20 77 -22 0 -3 -7 -12 -16 -20
-13 -14 -17 -14 -25 -2 -5 8 -9 9 -9 2 0 -6 -19 -14 -42 -18 -24 -4 -56 -13
-73 -21 -40 -20 -160 -36 -202 -28 -19 4 -51 14 -70 24 l-36 17 32 11 c26 9
31 16 26 31 -7 24 0 28 78 51 77 23 83 23 138 6z"/>
<path d="M3440 5321 c0 -40 3 -50 20 -54 12 -3 22 -17 26 -35 4 -18 14 -32 25
-35 10 -3 23 -17 29 -32 8 -22 15 -26 36 -22 42 8 64 -20 74 -92 5 -35 13 -67
19 -70 5 -3 11 -20 13 -36 2 -20 7 -4 13 45 9 67 12 75 33 78 12 2 22 -1 22
-7 0 -6 9 -2 21 10 57 57 84 -48 71 -276 -4 -82 -6 -158 -4 -167 5 -22 33 -32
44 -16 4 7 8 88 8 180 0 138 3 169 16 182 21 21 56 20 80 -2 11 -11 42 -21 72
-25 54 -6 68 4 31 24 -12 6 -33 22 -48 35 -65 58 -231 161 -415 258 -12 6 -35
21 -53 34 -17 12 -34 22 -38 22 -3 0 -21 11 -39 25 -47 36 -56 32 -56 -24z"/>
<path d="M4360 4786 c0 -2 7 -23 15 -47 9 -25 14 -59 10 -79 -3 -19 1 -62 8
-96 8 -40 10 -70 4 -88 -5 -15 -6 -39 -1 -54 7 -25 8 -24 20 23 6 28 13 80 13
117 2 121 41 153 100 81 22 -27 30 -33 31 -20 0 9 4 17 9 17 4 0 8 -45 8 -100
0 -55 -4 -100 -8 -100 -5 0 -9 -6 -9 -13 0 -8 -9 -22 -20 -32 -17 -15 -20 -29
-18 -69 3 -48 5 -51 31 -54 19 -2 28 1 26 10 -1 7 -1 35 0 62 1 51 13 57 17 8
1 -15 5 -35 9 -44 4 -11 3 -18 -4 -18 -6 0 -11 -5 -11 -11 0 -5 4 -8 9 -4 5 3
12 1 15 -4 4 -5 14 -8 24 -7 13 2 17 14 19 59 2 34 -2 61 -10 69 -34 37 -47
78 -47 153 0 77 -12 121 -31 109 -6 -3 -10 0 -8 7 1 8 1 19 0 26 -1 13 -66 53
-87 53 -8 0 -14 3 -14 8 0 11 -59 42 -81 42 -10 0 -19 -2 -19 -4z"/>
<path d="M3252 4693 c3 -25 7 -28 38 -28 21 0 48 -10 67 -23 l33 -23 2 -277
c3 -254 4 -277 21 -280 16 -3 17 15 17 277 0 172 4 282 10 286 5 3 31 -15 57
-41 l47 -48 71 2 c68 3 71 2 102 -30 17 -18 34 -44 38 -58 8 -27 28 -50 43
-50 18 0 23 -33 33 -190 11 -178 13 -190 41 -190 20 0 20 4 14 210 -3 115 -3
216 0 225 8 21 47 19 77 -5 15 -12 40 -20 62 -20 38 0 103 -32 107 -53 1 -7 3
-94 3 -194 0 -99 3 -184 7 -188 22 -22 28 17 28 175 0 177 3 200 27 200 8 0
13 5 11 11 -4 12 -263 119 -289 119 -9 0 -22 7 -29 15 -7 8 -18 15 -24 15 -7
0 -95 27 -196 61 -102 33 -195 62 -207 64 -13 1 -28 7 -35 12 -14 11 -148 53
-168 53 -6 0 -10 -11 -8 -27z"/>
<path d="M5006 4473 c1 -16 3 -31 3 -35 1 -5 8 -8 16 -8 9 0 15 -9 15 -25 0
-14 7 -28 15 -31 26 -10 55 -69 55 -113 0 -37 2 -41 25 -41 21 0 25 5 25 29 0
51 11 87 32 100 11 7 17 8 13 2 -3 -6 2 -11 13 -11 20 0 39 -46 44 -104 2 -16
9 -32 17 -34 11 -4 12 3 7 31 -4 24 -1 46 10 70 15 30 15 37 3 49 -16 17 -20
18 -53 18 -13 0 -54 22 -91 50 -54 40 -71 48 -85 40 -23 -13 -53 -13 -46 -1 7
11 -3 41 -13 41 -4 0 -6 -12 -5 -27z"/>
<path d="M3063 4333 c-10 -3 -13 -38 -13 -123 0 -125 2 -130 50 -130 27 0 33
31 25 133 -9 119 -19 138 -62 120z"/>
<path d="M5842 4070 c-19 -18 -44 -30 -60 -30 -21 0 -24 -2 -12 -10 10 -6 11
-10 3 -10 -9 0 -13 -19 -13 -63 0 -85 15 -94 120 -75 l75 14 3 36 c2 26 -3 43
-21 64 -13 16 -22 35 -20 42 3 6 0 12 -5 12 -6 0 -12 10 -14 22 -4 32 -19 31
-56 -2z"/>
<path d="M2800 3972 c0 -69 3 -72 81 -65 54 4 55 4 69 -29 17 -37 43 -47 68
-25 22 19 134 32 159 19 13 -7 34 -7 61 -1 37 8 46 6 72 -13 l30 -22 0 -208
c0 -237 -3 -228 81 -208 l51 12 -7 112 c-4 61 -10 128 -15 148 -4 21 -5 67 -3
103 6 62 7 65 32 65 14 0 34 -7 44 -14 13 -10 29 -11 65 -4 72 13 205 19 221
9 12 -8 12 -12 2 -25 -9 -11 -10 -16 -2 -16 16 0 14 -86 -2 -102 -12 -11 -12
-16 0 -26 9 -9 13 -41 13 -108 l0 -95 43 3 42 3 -3 165 c-3 142 -2 168 12 179
9 7 22 11 30 8 27 -11 166 39 166 59 0 14 -77 26 -283 44 -128 11 -256 24
-286 30 -29 5 -57 8 -61 5 -5 -3 -53 -1 -107 5 -54 5 -179 16 -278 25 -99 8
-206 17 -237 20 l-58 6 0 -59z"/>
<path d="M4140 3885 c0 -7 5 -17 11 -21 9 -5 10 -52 5 -171 -6 -154 -5 -164
11 -161 16 3 18 15 15 128 -1 69 2 131 7 139 5 8 29 15 57 16 27 1 68 9 91 18
34 13 44 13 59 2 16 -11 18 -24 14 -92 -9 -169 -7 -198 15 -198 12 0 28 15 42
40 12 22 23 43 23 46 0 3 -14 21 -31 39 -28 29 -31 37 -25 74 6 39 13 48 53
72 31 19 0 42 -65 48 -31 2 -88 9 -127 15 -148 21 -155 21 -155 6z"/>
<path d="M4885 3820 c-19 -21 -14 -53 8 -44 26 9 49 -42 41 -92 -3 -24 -9 -46
-13 -49 -11 -6 -58 41 -66 65 -9 29 -22 16 -30 -29 -9 -53 8 -85 36 -70 11 5
53 9 92 8 44 -1 85 3 105 12 25 10 37 11 51 2 14 -9 27 -7 61 8 27 12 55 17
74 14 50 -9 63 6 49 57 -9 35 -9 49 4 75 8 18 12 37 8 42 -11 19 -165 11 -212
-11 -41 -19 -44 -19 -88 -2 -25 9 -48 21 -51 25 -9 16 -51 9 -69 -11z"/>
<path d="M1862 3613 c0 -62 4 -101 12 -105 8 -6 7 -10 -2 -17 -8 -4 -12 -17
-10 -27 4 -18 20 -21 56 -9 15 5 16 90 1 171 -11 62 -23 84 -45 84 -10 0 -13
-23 -12 -97z"/>
</g>
</svg>
