<?xml version="1.0" standalone="no"?>
<!DOCTYPE svg PUBLIC "-//W3C//DTD SVG 20010904//EN"
 "http://www.w3.org/TR/2001/REC-SVG-20010904/DTD/svg10.dtd">
<svg version="1.0" xmlns="http://www.w3.org/2000/svg"
 width="739.000000pt" height="415.000000pt" viewBox="0 0 739.000000 415.000000"
 preserveAspectRatio="xMidYMid meet">

<g transform="translate(0.000000,415.000000) scale(0.100000,-0.100000)"
fill="#000000" stroke="none">
<path d="M0 2075 l0 -2075 3695 0 3695 0 0 319 0 319 -22 6 c-35 9 -35 9 -85
-43 -27 -26 -58 -54 -70 -60 -12 -6 -75 -12 -146 -12 -107 -1 -129 1 -163 19
-21 11 -57 28 -79 37 -22 9 -48 20 -57 25 -10 6 -25 10 -33 10 -8 0 -15 5 -15
10 0 6 -13 10 -28 10 -16 0 -62 8 -103 19 -41 10 -130 28 -199 40 -69 12 -161
28 -205 37 -44 8 -105 14 -135 14 -30 0 -61 4 -67 8 -7 4 -51 4 -98 0 -75 -7
-89 -6 -122 12 -21 11 -50 20 -65 20 -15 0 -38 5 -52 11 -19 9 -32 9 -53 0
-23 -9 -37 -9 -72 4 -24 8 -75 15 -114 15 -50 0 -75 5 -88 16 -9 8 -34 17 -55
20 -22 2 -54 6 -72 9 -26 5 -41 1 -67 -19 -19 -14 -39 -26 -46 -26 -6 0 -17
-8 -24 -17 -11 -15 -22 -15 -129 -4 -64 8 -114 16 -111 19 2 3 38 7 77 8 49 2
68 0 58 -6 -13 -8 -13 -10 2 -10 23 0 32 17 12 24 -9 3 -40 6 -70 6 -34 0 -53
4 -49 10 3 5 0 10 -9 10 -8 0 -17 -6 -20 -12 -5 -10 -7 -10 -12 0 -4 8 -30 12
-79 12 -96 0 -130 13 -55 21 33 4 -1 6 -88 6 -78 0 -145 3 -149 6 -3 4 61 8
143 9 141 2 143 2 36 5 -69 2 -110 7 -107 13 3 6 34 10 68 11 34 0 71 4 82 8
17 7 16 9 -12 15 -18 4 -35 12 -38 17 -4 5 -24 9 -46 9 -21 0 -39 5 -39 10 0
6 17 10 38 10 21 0 42 4 47 9 6 5 26 14 45 19 l35 10 -47 1 c-47 1 -70 14 -43
25 8 3 36 3 62 0 26 -3 59 -1 73 5 21 9 15 10 -35 9 -86 -3 -378 24 -364 33
18 11 -87 18 -356 24 -133 3 -271 11 -310 18 -68 13 -65 14 170 18 178 4 253
2 290 -8 58 -15 64 -16 48 -5 -6 4 75 7 180 8 149 0 205 4 249 17 59 18 86 21
53 7 -16 -7 -11 -9 22 -9 23 -1 43 4 45 9 2 6 32 14 68 18 l65 8 -42 7 c-40 7
-61 27 -28 27 8 0 15 -5 15 -11 0 -11 44 -6 95 11 27 9 26 9 -15 6 l-45 -5 48
11 c46 11 47 12 47 49 0 35 2 37 38 42 20 3 60 11 87 20 l50 14 -35 5 c-33 4
-32 5 10 7 33 1 41 4 30 11 -11 7 1 10 40 11 40 1 48 3 30 8 l-25 7 23 8 c12
4 22 12 22 17 0 5 15 9 33 10 30 1 30 1 7 8 -14 4 -135 3 -269 -3 -187 -7
-246 -7 -249 2 -2 7 -11 12 -20 13 -9 0 1 7 22 15 22 8 91 17 155 21 64 3 118
9 121 13 3 5 97 13 210 20 113 7 207 14 209 16 2 2 -52 5 -120 6 -114 2 -117
2 -31 5 70 3 92 7 92 18 0 9 21 15 78 20 114 9 132 12 85 14 -79 2 -53 19 37
23 74 3 93 8 105 24 8 11 15 14 15 7 0 -7 4 -13 10 -13 5 0 7 7 4 15 -5 11 1
15 22 16 l29 1 -29 7 c-31 6 -46 26 -24 34 7 2 4 3 -7 1 -97 -13 -155 -15
-171 -5 -17 10 -16 11 6 5 14 -4 21 -3 17 2 -5 5 8 14 30 21 l38 13 -45 -6
c-25 -3 -52 -8 -61 -10 -12 -3 -19 4 -23 22 -6 23 -10 25 -34 19 -15 -4 -40
-9 -57 -10 -33 -3 -200 -21 -285 -30 -30 -4 -77 -13 -104 -21 -27 -8 -63 -14
-80 -14 -34 0 -101 -20 -249 -74 -95 -35 -176 -46 -204 -28 -17 11 19 41 58
49 45 9 45 23 0 23 -23 0 -41 4 -41 9 0 5 -18 12 -40 16 -22 4 -40 11 -40 16
0 5 -33 9 -72 9 -40 1 -93 5 -118 11 -25 6 -63 13 -84 17 -22 4 -41 12 -43 18
-5 16 53 23 312 35 121 5 234 14 250 19 29 9 28 9 -5 4 -28 -5 -33 -4 -23 6
14 15 143 28 343 35 141 4 370 22 400 30 8 2 98 11 200 20 102 8 196 20 210
25 14 5 63 14 110 20 47 6 99 15 115 20 62 18 160 27 202 18 42 -9 59 -27 28
-29 -28 -3 -33 -4 -41 -11 -4 -5 13 -8 39 -8 62 0 97 -14 97 -40 0 -13 7 -20
20 -20 11 0 20 -4 20 -10 0 -5 9 -10 20 -10 11 0 20 6 20 13 0 15 159 37 261
37 31 0 59 3 63 7 12 13 23 14 241 32 72 6 157 15 190 20 51 8 66 6 98 -10 22
-11 58 -19 87 -19 l50 0 0 1080 0 1080 -3695 0 -3695 0 0 -2075z m2630 1195
c0 -5 -4 -10 -10 -10 -5 0 -10 5 -10 10 0 6 5 10 10 10 6 0 10 -4 10 -10z
m-1527 -1593 c3 -7 3 -26 0 -41 -4 -18 -1 -31 8 -37 10 -6 10 -9 2 -9 -7 0
-13 -9 -13 -21 0 -11 -4 -18 -10 -14 -5 3 -6 13 -3 22 5 12 2 15 -10 10 -11
-4 -20 1 -27 14 -9 16 -7 27 10 54 23 37 35 43 43 22z m-146 -69 c-3 -7 -5 -2
-5 12 0 14 2 19 5 13 2 -7 2 -19 0 -25z m28 23 c3 -5 1 -12 -5 -16 -5 -3 -10
1 -10 9 0 18 6 21 15 7z m158 -11 c14 -17 15 -24 5 -40 -10 -15 -9 -22 6 -39
18 -20 18 -20 -3 -16 -25 5 -28 -16 -6 -35 13 -11 15 -10 9 6 -5 16 -4 16 5 4
6 -8 11 -23 11 -34 0 -16 -2 -17 -17 -5 -17 13 -17 13 0 -13 13 -21 14 -26 3
-22 -11 4 -30 45 -25 56 0 2 -4 16 -10 31 -7 18 -7 26 -1 22 13 -8 13 1 0 25
-7 13 -6 19 5 24 19 7 19 21 -1 40 -8 9 -12 16 -7 16 5 0 16 -9 26 -20z m4210
13 c-7 -2 -19 -2 -25 0 -7 3 -2 5 12 5 14 0 19 -2 13 -5z m-4106 -30 c-4 -3 1
-12 11 -20 9 -8 12 -12 5 -9 -13 7 -6 -31 8 -40 5 -3 6 3 2 13 -3 10 -2 15 2
11 5 -5 9 -20 10 -35 2 -16 6 -37 11 -48 7 -18 6 -18 -9 -6 -9 7 -17 19 -17
27 0 7 -5 16 -11 19 -5 4 -3 -10 5 -30 10 -24 12 -35 4 -33 -6 2 -12 12 -14
22 -1 10 -7 23 -13 29 -7 7 -8 2 -4 -14 4 -18 3 -21 -6 -13 -14 13 -4 67 10
58 11 -6 11 -6 0 33 -8 29 -6 43 7 43 3 0 2 -3 -1 -7z m3861 -30 c-10 -2 -26
-2 -35 0 -10 3 -2 5 17 5 19 0 27 -2 18 -5z m-868 -42 c0 -10 -23 -16 -95 -27
-66 -9 -50 6 23 22 73 16 72 16 72 5z m-3429 -38 c-12 -20 -14 -14 -5 12 4 9
9 14 11 11 3 -2 0 -13 -6 -23z m3211 -15 c62 -18 70 -28 22 -29 -31 0 -35 -2
-19 -9 16 -7 13 -9 -15 -9 -20 -1 -41 -6 -48 -13 -17 -17 -111 -15 -122 2 -11
17 -2 40 16 40 8 0 14 6 14 14 0 27 65 29 152 4z m-2829 -13 c4 -8 2 -17 -3
-20 -6 -4 -10 3 -10 14 0 25 6 27 13 6z m7 -56 c0 -6 -4 -7 -10 -4 -5 3 -10
11 -10 16 0 6 5 7 10 4 6 -3 10 -11 10 -16z m3680 -114 c0 -8 -6 -15 -14 -15
-17 0 -28 14 -19 24 12 12 33 6 33 -9z m-478 -7 c3 -9 26 -9 100 0 96 12 218
7 218 -9 0 -5 -10 -9 -23 -9 -12 0 -41 -9 -62 -20 -39 -20 -51 -20 -427 -14
-214 4 -388 11 -388 15 0 14 35 19 208 25 97 4 213 10 257 14 44 4 88 8 97 9
9 0 18 -4 20 -11z m-794 -155 c-15 -2 -42 -2 -60 0 -18 2 -6 4 27 4 33 0 48
-2 33 -4z m647 -23 c31 -1 36 -3 20 -10 -22 -9 -236 -3 -360 9 -60 6 -33 8
110 6 105 -2 208 -4 230 -5z m-857 -17 c-26 -2 -71 -2 -100 0 -29 2 -8 3 47 3
55 0 79 -1 53 -3z m708 -25 c11 -4 -26 -5 -81 -1 -55 3 -102 8 -105 10 -8 8
167 0 186 -9z m423 6 c60 -12 30 -19 -66 -16 -124 5 -160 21 -47 22 45 0 96
-3 113 -6z m-372 -20 c-3 -3 -12 -4 -19 -1 -8 3 -5 6 6 6 11 1 17 -2 13 -5z
m-914 -31 c-24 -2 -62 -2 -85 0 -24 2 -5 4 42 4 47 0 66 -2 43 -4z m854 -9
c-3 -3 -12 -4 -19 -1 -8 3 -5 6 6 6 11 1 17 -2 13 -5z m158 -35 c243 -19 246
-24 15 -33 -118 -4 -246 -9 -285 -11 l-70 -4 85 14 c47 8 91 14 98 15 6 0 12
4 12 9 0 6 -49 9 -117 7 l-118 -3 75 12 c76 12 93 11 305 -6z m-212 -111 c13
-6 94 -14 192 -18 126 -5 148 -7 85 -10 -130 -4 -243 1 -265 13 -11 5 -69 12
-130 14 -60 2 -111 6 -114 9 -10 10 212 3 232 -8z m350 -45 c-7 -2 -19 -2 -25
0 -7 3 -2 5 12 5 14 0 19 -2 13 -5z m400 -10 c-7 -2 -21 -2 -30 0 -10 3 -4 5
12 5 17 0 24 -2 18 -5z"/>
<path d="M1082 1650 c0 -14 2 -19 5 -12 2 6 2 18 0 25 -3 6 -5 1 -5 -13z"/>
<path d="M1050 1623 c0 -4 5 -15 10 -23 8 -13 10 -13 10 2 0 9 -4 20 -10 23
-5 3 -10 3 -10 -2z"/>
<path d="M6178 1853 c12 -2 32 -2 45 0 12 2 2 4 -23 4 -25 0 -35 -2 -22 -4z"/>
<path d="M5508 1803 c7 -3 16 -2 19 1 4 3 -2 6 -13 5 -11 0 -14 -3 -6 -6z"/>
<path d="M5970 1799 c0 -5 5 -7 10 -4 6 3 10 8 10 11 0 2 -4 4 -10 4 -5 0 -10
-5 -10 -11z"/>
<path d="M4768 1483 c6 -2 18 -2 25 0 6 3 1 5 -13 5 -14 0 -19 -2 -12 -5z"/>
<path d="M5288 1473 c7 -3 16 -2 19 1 4 3 -2 6 -13 5 -11 0 -14 -3 -6 -6z"/>
<path d="M5048 1353 c7 -3 16 -2 19 1 4 3 -2 6 -13 5 -11 0 -14 -3 -6 -6z"/>
<path d="M5008 1333 c6 -2 18 -2 25 0 6 3 1 5 -13 5 -14 0 -19 -2 -12 -5z"/>
<path d="M4960 1320 c0 -5 5 -10 10 -10 6 0 10 5 10 10 0 6 -4 10 -10 10 -5 0
-10 -4 -10 -10z"/>
<path d="M4700 1160 c-21 -7 -19 -8 15 -8 22 0 51 4 65 8 21 7 19 8 -15 8 -22
0 -51 -4 -65 -8z"/>
<path d="M4293 1143 c9 -2 25 -2 35 0 9 3 1 5 -18 5 -19 0 -27 -2 -17 -5z"/>
<path d="M4378 1133 c7 -3 16 -2 19 1 4 3 -2 6 -13 5 -11 0 -14 -3 -6 -6z"/>
<path d="M4423 1133 c9 -2 23 -2 30 0 6 3 -1 5 -18 5 -16 0 -22 -2 -12 -5z"/>
<path d="M4630 1000 c-13 -9 -13 -11 0 -20 20 -13 50 -13 50 0 0 6 -9 10 -21
10 -11 0 -17 5 -14 10 8 12 4 12 -15 0z"/>
<path d="M4728 983 c7 -3 16 -2 19 1 4 3 -2 6 -13 5 -11 0 -14 -3 -6 -6z"/>
</g>
</svg>
