<?xml version="1.0" standalone="no"?>
<!DOCTYPE svg PUBLIC "-//W3C//DTD SVG 20010904//EN"
 "http://www.w3.org/TR/2001/REC-SVG-20010904/DTD/svg10.dtd">
<svg version="1.0" xmlns="http://www.w3.org/2000/svg"
 width="1000.000000pt" height="1500.000000pt" viewBox="0 0 1000.000000 1500.000000"
 preserveAspectRatio="xMidYMid meet">
<metadata>
Created by potrace 1.16, written by Peter Selinger 2001-2019
</metadata>
<g transform="translate(0.000000,1500.000000) scale(0.100000,-0.100000)"
fill="#000000" stroke="none">
<path d="M854 14893 c7 -129 21 -251 31 -275 4 -11 3 -18 -5 -18 -6 0 -9 -8
-6 -17 3 -10 8 -92 11 -183 10 -296 19 -437 34 -525 6 -33 15 -130 21 -215 6
-85 21 -203 33 -262 18 -89 27 -112 50 -133 15 -14 27 -34 27 -45 0 -11 6 -34
14 -52 8 -18 18 -46 21 -63 6 -29 7 -29 21 -11 9 13 14 46 14 98 0 73 11 101
24 61 26 -83 55 -490 41 -572 -8 -49 -21 -46 -28 6 -3 21 -12 61 -21 88 -9 28
-14 38 -13 24 3 -21 0 -25 -15 -21 -20 5 -23 -5 -8 -28 9 -13 11 -13 21 0 9
13 10 12 5 -3 -3 -10 -6 -23 -6 -28 0 -4 -7 -6 -14 -3 -26 10 -46 -61 -51
-179 -3 -60 -7 -113 -10 -117 -2 -4 0 -71 5 -150 9 -131 8 -148 -10 -207 -25
-82 -25 -109 0 -123 40 -21 -5 -53 -97 -69 -63 -11 -230 -56 -268 -72 l-30
-13 30 -3 c37 -5 745 54 769 63 9 4 15 13 12 23 -11 38 -17 85 -31 241 -23
258 -44 443 -65 590 -50 351 -60 430 -65 500 -20 315 -27 410 -45 591 -11 113
-29 277 -41 364 -33 249 -57 456 -64 558 -2 20 -8 74 -14 120 -6 45 -12 100
-14 122 l-2 40 -134 3 -133 3 6 -108z"/>
<path d="M2396 14957 c1 -24 5 -58 9 -75 3 -17 8 -61 10 -96 1 -35 6 -69 9
-75 4 -5 2 -13 -4 -16 -6 -4 -8 -15 -5 -25 3 -10 8 -36 10 -57 2 -21 4 -38 5
-38 1 0 3 -34 5 -75 3 -41 7 -109 10 -150 3 -41 6 -91 8 -110 1 -19 7 -39 12
-43 6 -6 6 -10 -2 -14 -16 -6 -17 -43 -2 -43 7 0 9 -21 7 -59 -2 -36 0 -57 6
-54 5 4 7 -3 4 -15 -4 -12 -3 -22 0 -22 4 0 7 -22 6 -50 -1 -70 14 -271 22
-290 4 -8 8 -40 10 -70 8 -100 13 -165 15 -170 2 -6 5 -28 8 -52 0 -10 6 -18
12 -18 6 0 9 9 6 20 -3 11 -1 23 4 26 6 3 9 -10 7 -30 -1 -20 -5 -36 -10 -36
-4 0 0 -16 8 -36 8 -20 17 -70 20 -113 2 -42 7 -84 10 -93 3 -11 0 -18 -8 -18
-11 0 -10 -2 0 -9 9 -5 15 -35 18 -82 2 -41 6 -92 8 -114 3 -22 6 -69 8 -103
1 -35 6 -66 10 -68 5 -3 4 -13 -1 -22 -5 -9 -7 -30 -4 -47 13 -84 13 -128 1
-142 -11 -13 -11 -17 0 -21 10 -3 10 -7 1 -18 -9 -11 -8 -18 2 -31 10 -11 10
-14 2 -9 -14 8 -18 -6 -6 -18 16 -16 10 -36 -10 -36 -18 0 -19 -2 -7 -10 13
-9 13 -11 0 -20 -13 -8 -12 -10 3 -10 9 0 17 -4 17 -10 0 -5 -8 -14 -17 -19
-10 -6 -15 -11 -11 -11 4 0 4 -10 -1 -23 -13 -33 -22 -189 -12 -205 8 -14 41
-6 41 10 0 5 5 6 10 3 16 -10 12 -35 -6 -35 -22 0 -12 -23 12 -26 10 -2 55 -5
99 -6 l80 -3 3 37 c2 20 -11 162 -27 315 -51 472 -47 420 -106 1178 -14 176
-27 343 -30 370 -6 69 -31 362 -56 650 -11 132 -22 278 -25 325 -3 47 -7 100
-10 118 l-5 32 -87 0 -88 0 2 -43z"/>
<path d="M3097 14923 c4 -43 7 -111 7 -151 1 -39 5 -72 11 -72 5 0 4 -5 -3
-12 -7 -7 -8 -17 -2 -29 6 -10 6 -20 1 -23 -4 -3 -4 -29 0 -58 5 -29 8 -75 8
-103 -1 -27 3 -68 9 -90 6 -22 12 -106 14 -187 1 -80 6 -144 10 -142 4 3 8 -2
8 -11 0 -9 -4 -13 -10 -10 -7 4 -7 -3 0 -20 13 -34 13 -38 -2 -29 -7 4 -8 3
-4 -5 4 -6 9 -33 11 -59 3 -26 7 -65 10 -87 3 -22 8 -62 10 -88 3 -27 7 -52
10 -57 3 -5 6 -27 7 -50 1 -22 6 -44 11 -47 15 -9 -2 719 -29 1275 l-7 132
-38 0 -39 0 7 -77z"/>
<path d="M3995 14793 c4 -115 9 -212 12 -216 3 -4 -1 -14 -7 -22 -6 -8 -9 -19
-5 -25 4 -7 9 -64 11 -128 2 -64 6 -171 8 -236 3 -65 1 -129 -4 -141 -5 -13
-5 -26 1 -32 5 -5 11 -83 13 -173 4 -157 9 -218 23 -320 l7 -45 8 45 c4 25 12
347 18 715 5 369 11 696 14 728 l4 57 -55 0 -55 0 7 -207z"/>
<path d="M5256 14878 c-9 -164 -14 -229 -26 -318 -11 -88 -14 -123 -34 -370
-31 -380 -36 -429 -55 -590 -10 -91 -24 -219 -30 -285 -7 -66 -18 -165 -26
-220 -8 -55 -19 -149 -25 -210 -6 -60 -21 -159 -32 -220 -11 -60 -24 -139 -28
-175 -5 -36 -13 -85 -19 -110 -8 -36 -7 -48 5 -61 19 -22 18 -66 -3 -78 -32
-17 -5 -23 112 -25 l117 -1 29 33 c24 27 29 41 29 86 0 30 7 89 15 132 8 44
19 115 25 159 5 44 17 125 26 180 8 55 19 132 24 170 4 39 16 122 25 185 9 63
22 169 30 235 8 66 21 174 29 240 9 66 16 147 16 180 0 33 5 78 11 100 6 22
15 83 19 135 17 201 57 612 80 820 5 41 9 87 9 103 l1 27 -159 0 -158 0 -7
-122z"/>
<path d="M6031 14963 c1 -21 -1 -49 -4 -63 -4 -14 -9 -36 -11 -50 -2 -14 -9
-45 -16 -69 -6 -24 -10 -57 -9 -75 2 -17 0 -37 -5 -44 -9 -15 -14 -41 -20
-108 -2 -28 -9 -68 -15 -90 -12 -46 -23 -118 -23 -156 0 -16 -5 -28 -10 -28
-5 0 -7 -4 -4 -9 4 -5 2 -11 -4 -13 -9 -3 -22 -91 -21 -143 0 -10 -5 -25 -11
-32 -6 -8 -12 -32 -13 -54 -1 -23 -9 -45 -16 -50 -12 -7 -12 -10 -1 -18 8 -4
12 -12 10 -16 -1 -4 15 -13 36 -20 52 -18 56 -25 71 -118 5 -31 9 -36 23 -28
10 5 26 38 37 73 24 78 23 72 35 193 5 55 14 134 19 175 5 41 17 136 26 210 9
74 23 178 31 230 8 52 19 122 24 155 5 33 12 88 15 123 l6 62 -76 0 -77 0 3
-37z"/>
<path d="M6905 14958 c-8 -54 -25 -134 -36 -172 -5 -16 -9 -41 -9 -55 0 -24
-13 -93 -42 -226 -12 -52 -16 -90 -41 -345 -9 -85 -20 -175 -25 -200 -6 -25
-16 -72 -22 -105 -28 -140 -33 -161 -47 -187 -8 -16 -12 -28 -9 -28 3 0 -6
-11 -20 -25 -20 -20 -29 -23 -39 -15 -8 6 -11 18 -8 26 4 10 -2 14 -21 14 -29
0 -33 -8 -11 -24 14 -10 14 -13 0 -32 -11 -17 -23 -21 -57 -19 -24 1 -31 0
-15 -2 23 -4 27 -9 27 -37 0 -17 5 -37 11 -43 7 -7 7 -13 1 -17 -6 -3 -14 -1
-18 5 -4 8 -13 0 -23 -22 -9 -19 -22 -34 -28 -34 -24 0 -35 -24 -33 -76 1 -30
2 -67 2 -84 0 -16 -4 -77 -10 -135 -6 -57 -8 -117 -5 -133 6 -29 7 -29 54 -23
47 6 49 6 49 -19 0 -14 -4 -25 -10 -25 -5 0 -10 -7 -10 -15 0 -29 -34 -85 -52
-85 -10 0 -18 -4 -18 -9 0 -6 -13 -23 -28 -38 -34 -33 -54 -97 -51 -156 1 -23
-3 -52 -9 -64 -16 -29 -17 -25 22 -71 24 -29 32 -48 29 -65 -5 -23 -2 -24 66
-31 39 -3 96 -13 128 -21 41 -11 78 -14 127 -9 l68 6 -6 29 c-3 15 -1 31 4 34
7 4 7 13 0 24 -6 13 0 73 21 197 17 99 35 213 40 254 6 41 14 84 19 95 4 11
13 58 19 105 6 47 15 105 20 130 33 168 40 247 24 290 -5 14 -10 69 -12 122
-2 90 -1 99 21 121 47 48 52 60 59 140 3 45 18 145 33 222 14 77 28 156 31
175 3 19 10 62 15 95 6 33 15 98 20 145 23 206 31 270 45 350 8 47 15 91 15
98 0 9 -31 12 -124 12 l-124 0 -7 -42z"/>
<path d="M8646 14988 c-2 -7 -12 -60 -22 -118 -16 -99 -64 -337 -84 -425 -6
-22 -13 -67 -16 -100 -4 -33 -10 -62 -14 -65 -4 -3 -11 -43 -14 -90 -6 -78 -5
-92 24 -175 17 -49 33 -104 35 -122 8 -67 37 -101 94 -110 32 -5 66 -32 79
-63 9 -24 25 -138 23 -170 -1 -8 -1 -31 -1 -50 0 -19 -5 -57 -11 -83 -8 -33
-8 -52 -1 -59 12 -12 27 26 17 42 -4 6 0 22 9 35 9 13 16 32 16 41 0 48 120
314 184 408 15 22 29 50 32 62 3 12 12 25 20 28 13 5 28 34 33 61 1 6 10 19
20 30 26 28 41 60 41 85 0 12 5 18 10 15 6 -4 10 5 10 20 0 14 5 34 10 45 6
11 14 29 20 39 6 13 6 21 -1 23 -14 5 -39 102 -39 154 0 25 6 47 15 54 8 7 15
18 15 24 0 6 16 25 36 41 43 36 53 57 70 155 23 128 27 144 40 165 7 11 16 41
19 68 l7 47 -336 0 c-261 0 -337 -3 -340 -12z"/>
<path d="M9846 14978 c-3 -13 -6 -44 -6 -70 0 -29 -5 -48 -11 -48 -8 0 -9 -11
-5 -31 7 -36 -10 -200 -26 -241 -7 -18 -6 -33 1 -46 7 -14 8 -21 0 -24 -5 -2
-13 -30 -16 -63 -3 -33 -11 -69 -18 -80 -6 -11 -15 -38 -19 -60 -3 -22 -12
-68 -18 -102 -12 -66 -13 -64 64 -298 45 -137 54 -143 93 -62 13 29 28 56 31
60 7 7 43 113 68 199 14 48 16 119 16 472 l0 416 -74 0 c-68 0 -74 -2 -80 -22z"/>
<path d="M1930 14478 c-6 -19 -8 -30 -9 -65 -2 -31 -4 -34 -11 -18 -5 11 -9
15 -9 8 -1 -6 -4 -19 -7 -28 -5 -11 -2 -16 7 -15 34 5 42 1 29 -15 -7 -9 -19
-14 -27 -11 -7 3 -13 1 -13 -4 0 -6 5 -10 10 -10 6 0 10 -14 10 -31 0 -20 4
-28 11 -23 7 4 10 1 7 -7 -3 -8 -11 -13 -17 -11 -18 4 -17 -78 1 -89 6 -4 7
-12 4 -18 -4 -6 -2 -19 3 -28 8 -14 11 -7 12 32 1 40 3 45 9 25 4 -14 8 -41 9
-60 1 -30 3 -33 16 -19 13 13 13 31 0 159 -16 146 -31 241 -35 228z"/>
<path d="M1963 14063 c-11 -10 -18 -24 -15 -32 3 -8 0 -11 -7 -7 -7 5 -11 -1
-11 -16 0 -17 3 -19 9 -9 14 22 33 4 21 -20 -6 -10 -7 -19 -3 -19 5 0 8 -20 8
-45 0 -25 -4 -45 -10 -45 -10 0 -10 -50 -1 -120 3 -19 7 -78 10 -130 3 -52 10
-117 15 -145 5 -27 9 -81 10 -119 1 -72 6 -90 22 -81 5 4 9 -16 9 -44 0 -32
-4 -51 -12 -51 -6 0 -8 -3 -5 -6 3 -4 2 -16 -4 -27 -8 -14 -8 -18 0 -13 11 7
14 -21 16 -123 0 -25 5 -46 12 -48 8 -3 9 -12 3 -28 -5 -12 -6 -26 -3 -29 3
-3 7 -36 9 -73 5 -104 13 -165 25 -179 5 -7 12 -41 15 -76 2 -34 9 -88 14
-118 5 -30 12 -107 15 -170 3 -63 9 -128 12 -145 3 -16 7 -45 8 -63 1 -19 8
-38 15 -42 7 -4 10 -17 7 -29 -3 -14 2 -25 19 -36 34 -22 37 -19 31 23 -3 20
-8 83 -11 140 -3 56 -10 142 -16 190 -10 94 -39 365 -70 665 -10 103 -22 192
-25 197 -3 5 -12 7 -20 3 -10 -3 -15 1 -15 13 0 11 -3 29 -6 42 -5 18 -2 24
14 29 18 4 21 11 16 47 -2 22 -11 113 -19 201 -34 357 -53 547 -57 551 -3 2
-14 -4 -25 -13z"/>
<path d="M194 13126 c-4 -15 -4 -65 0 -110 4 -44 11 -153 16 -241 9 -163 35
-490 46 -580 3 -30 -1 -89 -11 -145 -9 -53 -13 -112 -10 -132 8 -45 -5 -49
-65 -18 -22 11 -43 20 -49 20 -5 0 -19 -19 -31 -42 -12 -24 -37 -56 -56 -71
-44 -37 -47 -77 -6 -77 21 1 370 28 379 30 1 0 -3 15 -8 33 -41 130 -51 191
-79 466 -30 302 -61 566 -79 671 -5 30 -13 87 -16 126 -8 84 -20 112 -31 70z"/>
<path d="M5837 12949 c-16 -16 -39 -29 -51 -29 -13 0 -29 -7 -36 -15 -7 -8
-18 -15 -25 -15 -18 0 -45 -45 -45 -74 0 -13 -4 -26 -9 -28 -6 -1 -13 -19 -16
-38 -3 -19 -12 -41 -19 -50 -8 -8 -17 -26 -21 -40 -4 -14 -13 -28 -19 -32 -8
-5 -8 -13 1 -27 7 -11 10 -27 7 -35 -4 -11 0 -13 16 -9 26 7 61 -23 53 -45
-12 -32 -58 -92 -75 -98 -10 -3 -18 -14 -18 -25 0 -11 8 -23 18 -26 9 -4 28
-18 41 -32 35 -37 85 -51 177 -49 l82 2 -25 43 c-28 51 -24 74 18 104 29 21
30 22 23 83 -4 33 -5 84 -3 111 6 72 3 258 -5 299 -10 52 -34 60 -69 25z"/>
<path d="M8626 12842 c-22 -70 -49 -126 -81 -170 -32 -45 -24 -60 57 -100 16
-7 28 53 38 185 6 75 9 137 7 139 -2 2 -11 -22 -21 -54z"/>
<path d="M9695 11500 c-104 -3 -197 -9 -205 -15 -9 -6 -135 -10 -315 -11 -269
-1 -409 -7 -471 -19 -75 -16 -451 -35 -679 -35 -242 0 -417 -12 -519 -35 -11
-3 -38 -7 -59 -9 -48 -4 -56 -12 -20 -19 39 -8 67 -56 53 -92 -5 -14 -7 -38
-4 -51 10 -38 -23 -114 -48 -114 -62 0 -140 -45 -129 -75 1 -5 5 -18 7 -29 4
-21 32 -45 52 -46 8 0 41 16 73 35 33 19 67 35 76 35 25 0 92 -42 99 -62 3
-10 16 -26 30 -34 13 -9 24 -26 24 -38 0 -12 4 -26 10 -32 12 -12 40 -248 39
-327 -1 -48 3 -63 22 -83 41 -44 107 -22 96 31 -6 35 12 155 24 155 9 0 49 73
49 90 0 6 12 29 26 51 31 50 32 81 5 139 -25 54 -26 85 -6 124 8 15 15 33 15
38 0 5 12 25 26 44 41 53 95 64 289 60 196 -5 215 -9 289 -57 32 -22 61 -39
65 -39 4 0 17 -20 29 -44 23 -44 30 -116 12 -116 -5 0 -10 -7 -10 -15 0 -8 -9
-29 -20 -47 -11 -18 -20 -42 -20 -53 0 -11 22 -63 49 -116 39 -79 49 -110 55
-170 13 -130 16 -150 31 -180 13 -24 20 -28 44 -23 40 8 130 -20 168 -54 17
-15 45 -53 62 -85 26 -49 31 -68 31 -130 0 -39 -5 -90 -11 -112 -14 -52 -67
-130 -99 -147 -14 -6 -33 -19 -42 -26 -13 -11 -29 -13 -60 -8 -64 11 -107 10
-171 -3 -70 -15 -320 -7 -442 14 -44 7 -114 19 -155 25 -41 7 -101 19 -133 27
-48 12 -66 12 -105 2 -26 -7 -102 -14 -170 -16 -119 -4 -125 -3 -170 23 -38
22 -63 28 -135 32 -48 2 -114 -1 -146 -7 -120 -24 -321 47 -321 114 0 11 -4
25 -9 30 -5 6 -17 37 -27 70 -20 71 -25 258 -6 291 20 37 31 188 25 341 -4
118 -2 163 11 220 21 93 21 139 -1 158 -53 47 -84 65 -107 65 -15 0 -38 11
-52 25 -30 30 -26 66 12 126 12 20 20 40 17 43 -4 3 9 6 28 7 l34 1 -30 10
c-25 8 -682 3 -980 -7 -38 -2 -223 -8 -410 -15 -187 -6 -342 -14 -344 -16 -2
-2 11 -4 30 -5 32 -1 32 -2 9 -9 -14 -4 -72 -8 -130 -9 -58 0 -159 -5 -225
-11 -66 -5 -181 -14 -256 -18 -135 -8 -137 -8 -174 -41 -39 -34 -93 -61 -162
-82 -66 -19 -142 3 -202 58 -44 41 -49 43 -108 43 -62 0 -64 -1 -112 -49 -43
-43 -56 -50 -113 -60 -139 -24 -195 -10 -243 59 -20 29 -35 40 -54 41 -83 3
-321 -4 -362 -10 -27 -4 -69 -5 -95 -1 -57 9 -123 -6 -146 -31 -9 -11 -22 -19
-30 -19 -25 -1 37 -29 65 -30 15 0 43 -6 61 -14 18 -7 53 -17 77 -21 82 -14
140 -64 185 -160 15 -33 30 -62 34 -65 3 -3 14 -22 23 -42 10 -20 25 -39 35
-41 14 -4 13 -6 -5 -12 -13 -4 -23 -11 -23 -16 0 -20 -66 -108 -77 -104 -7 2
-13 0 -13 -5 0 -5 -17 -24 -37 -44 l-37 -35 -23 40 c-12 22 -28 57 -34 77 -21
73 -38 83 -146 92 -112 10 -220 35 -244 57 -13 11 -17 33 -17 94 -1 46 -6 87
-13 95 -15 18 -68 44 -90 44 -34 0 -86 32 -104 64 -35 61 -46 66 -127 61 -40
-3 -228 -10 -418 -16 -459 -15 -556 -25 -252 -27 232 -2 233 -2 257 -26 13
-13 27 -37 31 -53 4 -15 13 -36 21 -45 8 -9 16 -39 16 -67 2 -40 -2 -53 -18
-65 -29 -21 -87 -29 -130 -17 -35 9 -265 -2 -309 -15 -10 -4 -41 5 -70 20 -51
25 -52 25 -131 11 -140 -26 -246 -30 -282 -12 -47 25 -73 73 -67 127 13 129
14 130 88 130 27 0 47 2 45 4 -3 3 -912 -20 -937 -24 -7 -1 8 -5299 15 -5400
4 -63 13 -124 19 -135 7 -11 15 -60 19 -110 4 -49 11 -94 16 -100 14 -14 11
-59 -6 -91 -19 -36 -19 -120 -1 -155 24 -46 25 -73 6 -114 l-19 -40 27 -6 c15
-4 39 -10 55 -13 20 -5 27 -12 27 -31 0 -13 -8 -29 -18 -34 -16 -9 -18 -21
-16 -98 4 -111 6 -122 28 -155 14 -22 26 -28 64 -30 54 -3 66 -19 77 -105 l7
-53 -29 0 c-18 0 -41 11 -61 30 -18 16 -37 30 -42 30 -4 0 -10 5 -12 11 -2 5
-20 14 -41 19 -49 11 -45 -7 7 -34 29 -16 36 -25 32 -41 -3 -11 -8 -29 -12
-41 -7 -27 23 -40 126 -54 116 -17 287 -3 530 42 189 34 190 35 190 67 0 15
-6 50 -14 77 -8 27 -21 117 -31 199 -20 190 -53 405 -71 470 -17 62 -35 244
-34 339 0 39 -13 150 -30 246 -16 96 -29 193 -28 215 1 22 -4 50 -11 62 -18
34 -73 333 -68 368 3 16 -1 45 -9 63 -8 19 -19 64 -24 100 -6 37 -18 109 -27
159 -8 51 -13 103 -9 117 3 13 -1 40 -9 59 -16 38 -27 102 -55 312 -10 77 -25
181 -34 230 -37 222 -76 493 -74 527 0 20 -4 49 -10 65 -18 45 -53 272 -53
341 0 34 -6 74 -14 88 -7 15 -16 50 -20 78 -3 28 -13 87 -22 130 -9 49 -13 99
-9 129 5 36 3 54 -7 66 -16 17 -39 123 -58 262 -10 74 -9 89 4 116 31 59 164
115 305 128 62 6 69 5 88 -17 14 -15 24 -43 29 -80 3 -32 14 -67 23 -78 l17
-20 70 19 c45 13 74 16 81 10 6 -5 14 -31 17 -57 5 -46 38 -233 73 -417 9 -49
24 -133 33 -185 19 -103 25 -100 36 15 4 39 16 97 26 130 10 33 21 80 25 105
7 59 -16 115 -50 124 -14 3 -30 16 -37 27 -16 30 -24 200 -11 237 6 18 7 43 3
59 -7 25 -11 28 -47 25 -22 -2 -47 -12 -57 -23 -23 -24 -47 -24 -47 0 0 23 25
51 46 51 8 0 22 4 32 10 29 17 137 52 257 85 122 33 157 44 207 68 59 28 195
54 209 40 5 -5 12 -36 15 -69 5 -49 3 -69 -15 -109 -23 -52 -26 -75 -11 -75 6
0 10 7 10 17 0 36 13 0 26 -74 45 -246 56 -309 69 -418 8 -66 21 -165 30 -220
17 -113 43 -307 50 -377 6 -59 20 -171 40 -313 9 -60 22 -168 30 -240 8 -71
17 -135 19 -142 3 -6 7 -36 11 -65 13 -129 37 -321 49 -413 8 -55 26 -190 40
-300 29 -224 29 -220 55 -400 11 -71 25 -166 31 -210 5 -44 26 -192 46 -330
19 -137 37 -264 39 -281 3 -17 9 -44 15 -58 13 -34 13 -39 -1 -30 -8 4 -8 1
-2 -12 5 -11 9 -41 8 -69 0 -27 5 -56 12 -63 19 -20 28 -103 12 -113 -8 -5 -9
-9 -3 -9 17 0 38 -91 23 -100 -6 -5 -7 -10 -2 -13 6 -4 11 -21 12 -39 1 -18 3
-40 3 -48 1 -8 5 -17 9 -20 4 -3 15 -59 24 -125 9 -66 20 -133 25 -150 4 -16
11 -50 15 -75 3 -25 10 -54 15 -65 31 -68 55 -158 66 -245 3 -25 10 -65 16
-90 5 -25 12 -65 14 -90 3 -44 7 -71 38 -285 26 -176 26 -184 16 -190 -6 -3
-5 -15 2 -31 16 -34 0 -43 -72 -45 -30 0 -66 -2 -80 -4 -14 -1 -81 -6 -150
-10 -69 -4 -126 -8 -128 -10 -11 -10 16 -33 51 -42 99 -27 228 -53 307 -63 47
-5 112 -15 145 -20 33 -5 98 -10 145 -10 47 0 101 -4 120 -10 19 -6 38 -6 43
-1 11 11 -20 220 -35 239 -7 7 -17 39 -23 70 -6 31 -17 58 -23 60 -9 3 -10 -3
-2 -24 12 -30 4 -47 -10 -24 -7 11 -10 7 -10 -17 0 -26 -3 -31 -17 -26 -11 4
-14 3 -9 -6 9 -14 -20 -40 -46 -41 -9 0 -33 -9 -53 -21 -33 -20 -37 -20 -60
-5 -28 18 -30 27 -13 44 9 9 8 12 -4 12 -20 0 -26 18 -17 55 6 26 7 27 8 6 0
-13 4 -22 7 -18 7 7 -15 148 -26 162 -7 9 -12 57 -25 240 -3 33 -7 75 -10 94
-11 70 -67 510 -76 591 -5 47 -15 121 -23 165 -14 81 -12 109 7 102 12 -4 22
-50 51 -222 9 -55 27 -136 38 -179 12 -44 22 -87 23 -95 1 -9 5 -23 8 -31 3
-8 7 -21 9 -29 2 -8 14 -16 25 -17 18 -3 22 2 25 29 3 30 5 32 42 32 46 0 59
-21 22 -35 -14 -5 -26 -16 -26 -25 0 -17 62 -21 120 -6 19 5 47 12 63 15 15 4
27 13 27 22 0 12 -10 15 -45 13 -24 -2 -47 0 -51 3 -7 8 61 28 95 28 20 0 21
2 11 15 -8 10 -30 15 -63 15 -28 0 -47 3 -44 6 7 7 96 25 134 28 15 1 21 6 18
16 -6 21 6 35 35 38 14 1 27 7 28 12 8 22 22 8 22 -20 0 -27 -3 -30 -31 -30
-24 0 -30 -4 -25 -15 3 -8 0 -15 -6 -15 -6 0 -5 -6 3 -16 11 -14 28 -15 111
-9 82 5 98 4 98 -8 0 -17 -128 -32 -196 -21 -41 6 -44 5 -44 -17 0 -25 22 -94
33 -105 3 -4 57 -3 119 1 l114 7 -4 33 c-4 32 -3 33 25 29 26 -4 29 -2 31 27
1 17 -7 79 -18 137 -25 135 -50 271 -54 297 -7 43 -19 111 -23 130 -2 11 -13
74 -24 140 -11 66 -33 188 -48 270 -16 83 -36 195 -45 250 -27 168 -40 240
-121 666 -8 42 -15 79 -15 82 0 4 -4 7 -10 7 -5 0 -10 -9 -10 -19 0 -19 -3
-20 -170 -36 -19 -1 -61 -6 -92 -10 -56 -7 -57 -8 -47 -33 6 -14 6 -29 1 -34
-15 -15 -42 3 -42 27 0 34 -26 38 -54 8 -24 -25 -24 -25 -35 -5 -16 30 -14 39
10 38 32 -1 35 22 5 34 -29 11 -32 20 -14 38 9 9 9 15 0 24 -10 10 -15 10 -22
-2 -12 -20 -20 -9 -13 18 6 23 28 28 53 12 20 -12 39 6 33 30 -3 11 -10 20
-17 20 -6 0 -5 4 3 9 22 14 -18 23 -55 12 -17 -5 -37 -5 -45 0 -16 10 -14 12
36 32 l40 16 -58 0 c-32 1 -56 5 -53 10 8 12 143 53 164 49 9 -2 18 -12 18
-23 1 -11 3 -22 4 -25 1 -3 3 -24 5 -46 7 -93 11 -95 133 -65 43 11 103 23
135 26 51 7 57 5 57 -11 0 -12 3 -15 10 -8 18 18 0 46 -26 41 -13 -2 -24 0
-24 4 0 5 11 9 24 9 24 0 26 9 16 60 0 3 -5 -3 -11 -12 -12 -22 -32 -23 -48
-4 -10 12 -7 15 16 18 26 3 28 6 27 43 0 22 -6 60 -13 84 -7 24 -10 52 -8 62
3 11 1 21 -4 24 -4 3 -6 12 -2 20 3 9 1 21 -5 28 -5 6 -10 23 -10 37 -1 43 -9
97 -15 107 -7 11 -14 46 -22 116 -3 27 -18 124 -35 215 -16 92 -36 210 -45
263 l-17 97 -61 -15 c-34 -8 -100 -23 -147 -33 -47 -10 -93 -21 -104 -26 -14
-5 -17 -3 -14 7 6 17 113 53 229 76 49 10 89 22 89 27 0 5 -17 6 -38 2 -20 -4
-75 -13 -121 -21 -47 -8 -99 -20 -118 -26 -42 -13 -65 -1 -32 17 13 7 31 14
39 14 8 0 33 9 55 20 l40 19 -50 -6 c-27 -2 -60 -10 -73 -16 -15 -7 -26 -7
-33 0 -7 7 5 17 40 32 27 11 54 21 59 21 13 0 2 58 -14 71 -11 9 -19 8 -35 -7
-21 -18 -21 -18 -39 4 -10 12 -23 22 -29 22 -6 0 -11 9 -11 20 0 11 4 20 9 20
5 0 12 8 14 18 3 9 5 3 6 -14 0 -17 8 -37 16 -44 22 -18 32 -3 12 17 -14 15
-14 19 0 46 l15 30 -27 -7 c-24 -6 -26 -5 -20 16 10 31 9 30 39 17 33 -15 37
-11 29 34 -5 33 -8 36 -32 31 -14 -3 -39 -10 -54 -16 -20 -8 -31 -8 -39 0 -8
8 4 18 43 35 30 14 69 28 86 32 18 3 33 11 33 16 0 6 -9 7 -21 4 -12 -4 -27
-1 -37 8 -9 8 -24 17 -32 21 -8 3 -3 4 11 1 32 -6 42 3 24 21 -11 12 -22 12
-60 3 -25 -6 -45 -16 -45 -21 0 -6 -7 -7 -16 -4 -13 5 -14 -4 -9 -67 4 -39 13
-99 20 -132 28 -121 28 -132 8 -143 -26 -13 -151 -23 -158 -12 -3 5 2 13 11
18 16 9 15 11 -4 21 -28 15 -28 25 0 38 l23 10 -22 7 c-29 9 -29 21 -2 40 28
19 19 58 -21 88 -30 22 -39 43 -19 50 13 4 19 57 7 64 -4 3 -6 10 -3 15 6 9
-4 24 -39 59 -17 18 -18 20 -3 26 10 3 17 14 17 23 0 21 19 41 39 41 9 0 29 7
45 15 39 21 53 14 67 -34 7 -23 15 -41 19 -41 4 0 27 9 51 19 24 11 94 32 154
46 145 35 142 34 127 44 -11 7 -277 -54 -324 -74 -11 -4 -18 -3 -18 4 0 18 93
55 200 80 52 13 103 25 113 28 16 4 18 11 12 51 -4 26 -10 50 -13 54 -10 10
-92 -12 -92 -24 0 -6 7 -7 16 -4 12 5 15 2 10 -10 -3 -8 -6 -18 -6 -20 0 -2
-6 -4 -14 -4 -7 0 -16 10 -20 23 -3 12 -9 18 -13 12 -5 -5 -15 -10 -23 -10 -8
0 -17 -11 -20 -25 -3 -14 -11 -25 -18 -24 -7 1 -24 2 -39 3 -22 1 -25 3 -13
11 21 13 7 22 -21 12 -52 -19 -79 -23 -79 -10 0 22 119 62 303 102 30 7 40 46
11 46 -10 0 -12 4 -7 13 4 6 8 48 8 92 l0 79 47 18 c26 10 62 19 80 22 18 2
47 9 63 15 45 16 222 53 285 58 30 3 73 11 95 17 43 12 135 10 135 -3 0 -4
-21 -6 -47 -4 -39 4 -52 1 -70 -16 -12 -12 -28 -21 -36 -21 -10 0 -12 -9 -9
-31 3 -22 1 -30 -7 -25 -6 4 -8 12 -5 18 4 7 2 8 -5 4 -8 -5 -9 -12 -2 -19 5
-7 8 -29 6 -50 -2 -21 0 -35 6 -32 5 4 9 -2 9 -13 0 -10 3 -22 7 -25 3 -4 8
-33 10 -64 3 -32 9 -65 14 -75 5 -9 9 -30 9 -47 0 -17 4 -31 8 -31 4 0 7 -15
7 -32 -1 -18 3 -39 8 -45 5 -7 6 -30 3 -50 -5 -28 -4 -34 3 -23 9 12 11 11 11
-7 0 -13 -6 -23 -12 -23 -9 0 -8 -4 2 -10 13 -9 13 -11 0 -20 -8 -5 -10 -10
-5 -10 6 0 12 -16 13 -36 2 -20 7 -46 13 -56 6 -11 8 -26 5 -34 -3 -9 -1 -12
4 -9 6 3 10 -3 10 -15 0 -14 -4 -19 -12 -13 -8 4 -6 -3 3 -17 15 -23 22 -70
36 -215 2 -27 4 -60 5 -72 0 -15 5 -20 15 -16 13 5 13 3 3 -16 -9 -17 -9 -26
0 -36 7 -8 9 -18 6 -23 -2 -4 -1 -27 5 -50 5 -23 11 -68 13 -100 3 -31 6 -57
6 -57 4 0 12 -58 14 -87 0 -16 5 -28 9 -28 5 0 6 -4 3 -8 -2 -4 1 -37 9 -72 7
-36 13 -90 14 -120 2 -79 12 -183 19 -195 4 -5 7 -32 8 -60 3 -73 3 -72 16
-87 18 -18 23 -52 7 -42 -9 5 -10 1 -6 -17 4 -13 7 -39 7 -57 0 -24 4 -31 13
-26 8 5 9 4 2 -5 -12 -12 -7 -84 5 -76 4 2 6 -7 4 -20 -1 -14 3 -25 9 -25 8 0
7 -4 -2 -9 -7 -5 -11 -13 -8 -18 4 -5 7 -26 9 -46 1 -23 7 -37 15 -37 10 0 11
-5 3 -19 -6 -12 -6 -22 -1 -25 5 -3 7 -15 4 -27 -4 -12 0 -25 8 -30 11 -7 11
-9 1 -9 -8 0 -10 -5 -6 -12 4 -6 8 -23 10 -37 1 -14 5 -60 9 -101 3 -41 11
-80 17 -87 6 -7 7 -13 2 -13 -4 0 -3 -5 4 -12 7 -7 12 -19 12 -28 0 -13 -2
-13 -11 0 -8 11 -9 8 -4 -15 4 -16 8 -34 9 -40 1 -5 5 -16 9 -22 5 -7 5 -13 0
-13 -4 0 -1 -5 8 -10 11 -6 15 -18 11 -35 -3 -16 0 -25 9 -25 8 0 6 -5 -5 -13
-16 -12 -17 -17 -7 -33 10 -16 12 -16 7 -1 -3 9 -1 17 5 17 6 0 7 -19 3 -52
-5 -39 -4 -49 6 -43 9 6 10 3 1 -14 -7 -12 -8 -21 -2 -21 17 0 24 -42 10 -51
-12 -8 -12 -10 0 -18 8 -5 15 -29 16 -57 1 -27 5 -71 10 -98 6 -37 4 -50 -6
-57 -11 -7 -11 -9 3 -9 22 0 31 -30 34 -125 4 -104 14 -177 27 -192 6 -9 5
-18 -3 -28 -10 -12 -10 -15 0 -15 10 0 10 -3 0 -15 -11 -13 -10 -14 3 -9 13 5
16 -2 15 -34 0 -22 3 -45 6 -51 4 -6 1 -11 -6 -11 -9 0 -9 -3 -2 -8 6 -4 11
-14 12 -22 1 -8 3 -28 6 -45 16 -98 36 -236 41 -275 2 -25 7 -56 10 -70 2 -13
-1 -28 -8 -32 -9 -6 -8 -8 3 -8 12 0 15 -16 17 -73 1 -39 7 -91 12 -114 6 -24
16 -63 22 -88 7 -25 17 -45 24 -45 15 0 18 -14 55 -290 12 -85 23 -159 26
-165 6 -14 -2 73 -14 165 -19 140 -23 210 -12 210 6 0 9 -4 6 -8 -3 -5 2 -27
10 -51 8 -23 18 -66 23 -94 8 -44 9 -40 5 33 -3 47 -10 118 -15 158 -8 55 -8
77 2 88 13 16 9 93 -15 279 -9 66 -19 143 -22 170 -3 28 -11 91 -19 140 -8 50
-17 117 -20 150 -3 33 -19 152 -35 265 -16 113 -36 259 -45 325 -29 219 -36
269 -51 370 -8 55 -17 116 -19 135 -7 52 -14 197 -9 180 5 -21 32 -205 49
-340 9 -63 30 -221 49 -350 19 -129 34 -242 34 -250 1 -8 8 -62 17 -120 9 -58
19 -121 21 -140 17 -135 49 -367 66 -485 11 -77 22 -158 24 -180 8 -72 36
-210 45 -219 5 -6 9 5 9 27 0 20 4 37 8 37 4 0 12 15 17 33 8 25 16 33 38 35
20 3 27 9 27 25 0 20 1 20 13 2 13 -17 16 -15 38 24 22 40 24 42 30 19 l6 -23
11 28 c14 34 30 35 42 2 6 -15 15 -23 24 -19 8 3 17 1 21 -5 3 -6 2 -11 -4
-11 -6 0 -8 -7 -5 -15 4 -8 12 -15 20 -15 17 0 86 -66 103 -98 7 -13 16 -21
19 -17 4 4 12 -13 18 -37 9 -32 12 -37 14 -18 l1 25 10 -24 c5 -13 12 -22 14
-19 5 5 -14 157 -40 323 -74 467 -99 620 -120 745 -13 80 -31 192 -40 250 -17
114 -49 312 -95 595 -16 99 -39 241 -50 315 -12 74 -45 284 -75 465 -92 565
-115 715 -115 740 0 27 2 28 120 50 47 9 109 21 137 26 29 6 55 10 58 10 2 0
19 6 37 13 29 13 32 18 30 49 -4 40 -16 35 143 57 146 19 259 30 320 30 l60
-1 -32 -14 c-36 -16 -38 -18 -23 -46 6 -11 13 -70 15 -132 5 -143 14 -229 26
-243 5 -6 11 -33 14 -60 3 -27 6 -56 7 -65 1 -9 8 -14 15 -12 9 4 11 0 7 -11
-4 -10 -13 -15 -21 -12 -11 5 -11 2 -1 -17 13 -22 15 -28 17 -59 1 -11 9 -18
21 -18 11 0 20 -4 20 -10 0 -5 -7 -10 -15 -10 -8 0 -15 -4 -15 -10 0 -5 6 -10
14 -10 8 0 17 -7 20 -16 9 -23 8 -24 -14 -24 -11 0 -20 -4 -20 -10 0 -5 5 -10
10 -10 14 0 12 -27 -2 -33 -9 -3 -7 -10 7 -23 21 -20 30 -84 12 -84 -5 0 -4
-7 3 -15 7 -9 10 -18 6 -22 -3 -3 1 -14 9 -23 14 -15 13 -19 -4 -34 -19 -17
-19 -52 0 -40 5 3 9 0 9 -5 0 -6 7 -11 15 -11 8 0 15 -4 15 -10 0 -13 -6 -13
-31 0 -23 13 -26 -2 -4 -20 8 -7 15 -18 15 -25 0 -8 6 -15 13 -18 10 -4 10 -7
0 -18 -10 -9 -13 -10 -13 -1 0 7 -4 12 -10 12 -13 0 -13 -27 0 -32 6 -2 11
-29 12 -61 2 -42 6 -57 16 -57 11 0 12 -3 3 -14 -16 -19 -4 -46 17 -38 16 5
16 5 0 -11 -9 -9 -21 -17 -27 -17 -6 0 -11 -5 -11 -11 0 -6 7 -9 15 -6 8 4 17
2 20 -2 10 -17 19 -97 24 -208 1 -24 6 -33 19 -34 13 0 12 -2 -5 -9 -23 -9
-32 -30 -13 -30 6 0 9 -3 8 -7 -1 -5 4 -19 11 -31 14 -26 6 -45 -9 -22 -8 12
-10 10 -10 -9 0 -18 4 -22 19 -18 13 3 18 0 15 -8 -3 -7 -1 -16 5 -20 8 -4 6
-11 -4 -21 -17 -17 -21 -49 -5 -39 6 3 10 -1 10 -9 0 -9 -4 -16 -9 -16 -5 0
-9 -16 -9 -35 0 -37 6 -43 26 -23 8 8 12 9 12 1 0 -6 -6 -14 -12 -16 -10 -4
-9 -8 2 -16 13 -9 13 -12 1 -20 -21 -14 -25 -51 -5 -51 14 0 14 -3 4 -15 -7
-8 -9 -15 -4 -15 5 0 9 -21 9 -47 1 -27 2 -66 4 -88 2 -22 0 -53 -4 -69 -6
-21 -5 -27 4 -22 6 4 11 3 11 -3 0 -5 -5 -13 -11 -16 -13 -8 -3 -56 21 -107
18 -37 15 -49 -6 -28 -6 6 -10 3 -10 -10 0 -12 7 -20 17 -20 22 0 28 -26 16
-63 -6 -19 -5 -32 3 -41 9 -11 7 -17 -7 -25 -17 -10 -17 -10 1 -11 12 0 16 -5
12 -15 -3 -8 -2 -15 3 -15 5 0 7 -21 5 -47 -1 -29 2 -51 9 -55 9 -6 9 -8 -1
-8 -8 0 -10 -5 -6 -12 5 -7 7 -26 5 -43 -1 -17 2 -42 8 -56 6 -17 6 -41 1 -65
-12 -48 -5 -73 23 -84 19 -7 19 -9 4 -9 -15 -1 -17 -6 -13 -29 4 -15 8 -50 10
-78 2 -29 6 -56 10 -62 9 -15 46 -22 46 -9 0 7 4 6 9 -2 6 -9 6 -22 -1 -35 -8
-15 -8 -21 1 -24 6 -2 11 -20 11 -39 0 -28 -3 -34 -16 -29 -9 4 -23 1 -30 -5
-16 -13 -19 -49 -4 -49 6 0 8 -10 5 -23 -5 -17 1 -26 22 -39 26 -15 30 -26 46
-118 9 -56 14 -106 11 -111 -3 -6 -1 -15 4 -22 6 -7 13 -46 17 -87 3 -41 8
-94 10 -117 2 -24 0 -43 -6 -43 -5 0 -9 6 -10 13 -3 84 -13 165 -24 190 -8 20
-30 24 -22 3 3 -7 1 -18 -5 -24 -8 -8 -8 -15 0 -25 6 -7 11 -22 10 -32 0 -22
9 -128 17 -189 3 -21 10 -46 15 -56 7 -13 7 -21 0 -25 -12 -7 -14 -65 -2 -65
7 0 13 -27 15 -72 1 -10 4 -18 7 -18 8 0 5 -48 -3 -57 -10 -9 -9 -25 2 -19 4
3 11 -25 14 -62 8 -80 10 -93 20 -108 10 -16 12 -68 3 -82 -11 -19 4 -81 19
-76 8 3 13 -4 13 -20 0 -14 -4 -23 -9 -20 -5 3 -9 1 -9 -5 0 -5 6 -12 13 -14
7 -3 4 -6 -7 -6 -16 -1 -16 -3 -5 -17 7 -9 14 -23 15 -32 2 -20 21 -158 35
-262 6 -41 12 -91 14 -110 1 -24 8 -36 20 -38 15 -3 16 -11 12 -47 -4 -29 -2
-45 5 -47 22 -8 -3 -30 -26 -23 -11 3 -38 8 -60 10 -21 3 -44 9 -50 13 -15 12
-67 21 -60 11 8 -14 133 -69 214 -95 78 -24 244 -46 258 -33 4 5 63 10 132 12
69 3 139 10 155 17 47 19 175 34 187 22 7 -7 21 -6 43 4 28 11 39 11 72 0 34
-12 41 -11 72 6 18 10 36 17 38 14 3 -3 13 -1 23 4 10 5 20 7 24 3 3 -3 47 -7
97 -9 78 -2 94 1 110 17 23 23 49 25 49 4 0 -21 6 -19 64 16 49 31 52 31 79
15 16 -9 42 -16 58 -16 27 0 28 2 18 26 -12 34 -7 39 39 35 20 -2 51 -4 67 -4
17 -1 35 -7 40 -14 14 -17 70 -21 71 -5 1 6 2 16 3 22 0 5 7 7 14 4 7 -2 31
-1 52 4 l40 8 -45 18 c-63 26 -34 31 43 7 35 -10 83 -21 108 -24 24 -2 36 -2
27 0 -10 2 -18 9 -18 14 0 5 -6 9 -14 9 -7 0 -19 7 -26 15 -11 13 -3 14 64 11
77 -4 100 4 69 24 -14 9 -10 10 22 5 22 -3 56 -6 75 -5 24 0 31 -3 21 -9 -11
-7 -8 -9 10 -9 13 0 35 -3 49 -7 14 -4 6 3 -17 16 -23 12 -40 26 -37 31 3 4
-4 8 -15 8 -11 0 -23 5 -26 10 -9 14 3 13 78 -11 51 -16 70 -18 84 -9 11 7 12
10 3 7 -8 -2 -28 3 -45 12 l-30 15 25 4 c14 2 29 8 35 13 5 5 14 9 20 9 5 0 2
-5 -7 -11 -28 -16 -22 -30 8 -19 31 12 57 12 29 0 -16 -7 -17 -9 -3 -9 9 -1
19 3 22 8 3 5 16 7 29 4 20 -4 20 -3 -6 20 l-28 24 50 -11 c48 -9 51 -9 73 16
20 23 29 26 63 22 22 -3 46 -7 53 -9 21 -7 13 6 -20 36 -24 21 -28 29 -16 29
9 0 20 -4 23 -10 7 -12 61 -12 90 0 18 7 18 8 -8 15 -35 9 -23 25 19 26 40 0
96 -12 112 -24 9 -7 16 -7 24 1 9 9 7 12 -9 12 -12 0 -25 4 -28 10 -3 5 -15
10 -26 10 -10 0 -19 4 -19 9 0 5 -8 12 -17 14 -10 3 -1 5 20 4 21 -1 40 -5 43
-9 3 -4 12 -4 20 -1 9 3 20 0 24 -7 7 -11 11 -10 24 3 12 11 13 17 3 20 -7 3
-6 6 5 6 9 1 18 -3 20 -8 2 -4 14 -12 28 -16 25 -8 25 -8 6 14 -11 11 -30 21
-43 21 -12 0 -23 5 -23 10 0 6 10 8 24 4 13 -3 27 -1 30 5 4 6 22 11 41 11 27
0 34 5 39 26 6 23 11 25 39 20 18 -3 50 -8 72 -11 l40 -6 -30 14 c-17 8 -36
21 -44 30 -12 15 -11 17 8 17 11 0 21 -6 21 -12 0 -9 3 -9 9 1 5 8 15 12 22 9
8 -3 23 -2 34 3 17 6 17 8 3 8 -10 1 -18 8 -18 16 0 10 11 15 35 15 24 0 35 5
35 15 0 8 7 15 15 15 9 0 18 6 21 14 4 11 19 13 57 10 37 -3 48 -1 37 6 -13 9
-13 11 0 20 8 5 33 12 55 16 22 3 49 13 62 21 15 10 35 12 66 8 31 -5 53 -2
73 8 25 13 26 16 12 22 -22 9 -24 45 -3 45 22 0 78 37 67 44 -6 3 -72 29 -148
57 -153 56 -184 70 -203 93 -11 13 -11 16 -1 16 9 0 11 15 6 60 -4 35 -3 60 2
60 5 0 8 19 6 43 -5 59 -5 57 1 112 3 28 7 61 9 75 4 48 18 90 28 90 6 0 6 6
-2 15 -7 8 -9 22 -6 31 4 9 1 23 -5 30 -6 7 -8 18 -4 24 10 16 45 -7 39 -25
-4 -8 -2 -15 4 -15 11 0 21 30 15 48 -3 6 -11 12 -18 12 -8 0 -21 10 -29 22
-18 25 -7 53 24 63 26 8 26 21 0 28 -26 7 -26 23 1 30 20 5 20 7 4 31 -10 14
-25 26 -34 26 -14 1 -14 2 2 15 14 10 17 20 11 37 -4 13 -7 29 -5 36 1 8 -3
20 -10 28 -9 11 -8 18 2 31 11 13 11 17 1 21 -20 6 -43 33 -37 43 8 12 39 11
84 -1 20 -5 104 -26 186 -45 83 -20 170 -42 195 -49 43 -13 125 -36 200 -56
19 -6 71 -21 115 -34 44 -14 112 -32 150 -41 39 -9 102 -27 142 -40 73 -26
111 -33 85 -16 -10 6 -7 12 12 24 31 21 36 21 36 2 0 -20 30 -32 40 -15 10 16
29 5 40 -24 7 -18 9 -18 9 -3 1 16 6 18 34 12 25 -5 29 -4 17 5 -13 9 -12 11
5 8 12 -2 19 -10 17 -19 -2 -12 4 -15 23 -11 31 5 32 17 3 27 -23 8 -23 8 2
12 49 9 45 23 -8 23 -35 0 -51 4 -50 12 4 15 -55 37 -99 37 -22 1 -31 5 -27
14 2 7 -9 21 -26 30 -17 10 -27 23 -24 29 4 6 -1 8 -12 4 -18 -6 -19 0 -13
112 3 64 2 121 -3 126 -19 23 -14 82 70 751 17 132 36 299 42 370 6 72 18 191
26 265 8 74 21 203 29 285 8 83 25 256 39 385 14 129 32 316 40 415 22 247 36
386 48 475 10 69 22 1047 13 1025 -4 -10 -24 -206 -31 -310 -2 -33 -9 -103
-14 -155 -6 -52 -21 -216 -35 -365 -14 -148 -31 -331 -39 -405 -9 -74 -20
-187 -26 -251 -6 -63 -13 -131 -15 -150 -6 -47 -23 -231 -23 -249 -2 -38 -43
-447 -47 -460 -2 -8 -11 -98 -20 -200 -8 -102 -19 -225 -25 -275 -5 -49 -16
-157 -25 -240 -8 -82 -17 -170 -20 -195 -3 -25 -9 -85 -14 -135 -5 -49 -12
-106 -15 -125 -4 -19 -8 -71 -11 -115 -2 -44 -5 -80 -5 -80 -1 0 -4 -16 -7
-35 -2 -19 -16 -89 -30 -155 -13 -66 -27 -140 -29 -165 -7 -72 -13 -90 -29
-90 -22 0 -24 -35 36 477 24 201 22 246 -6 158 -6 -19 -39 -19 -55 0 -9 11 -9
29 -1 77 14 83 63 332 95 483 15 66 30 145 35 175 6 30 19 98 30 150 50 235
63 335 136 1085 8 83 17 184 20 225 4 41 13 129 21 195 7 66 27 257 44 425 17
168 37 366 45 440 8 74 26 248 40 385 l26 250 -3 1240 -3 1240 -55 0 c-30 0
-140 -2 -245 -5z m-297 -375 c22 -101 25 -109 44 -143 25 -45 38 -390 16 -437
-21 -48 -62 -105 -75 -105 -6 0 -13 -6 -15 -12 -3 -9 -29 -13 -80 -13 -71 0
-77 2 -114 34 -21 19 -45 43 -53 54 -21 30 -17 157 7 209 37 80 42 99 42 149
0 47 16 94 45 129 18 22 45 102 41 123 -1 10 -8 22 -15 26 -9 6 -6 12 11 23
29 19 52 24 98 23 34 -1 35 -2 48 -60z m-4312 -116 c18 -20 37 -190 29 -254
-13 -91 -12 -108 6 -145 14 -29 31 -44 64 -59 56 -25 140 -103 168 -156 23
-44 27 -129 8 -177 -18 -48 -79 -104 -143 -133 -80 -36 -164 -42 -353 -24 -77
7 -191 14 -254 15 -165 2 -274 27 -329 75 -18 16 -38 29 -45 29 -8 0 -37 11
-65 25 -66 32 -92 31 -123 -1 -59 -63 -158 -89 -249 -64 -118 32 -185 201
-130 328 56 128 82 155 170 172 84 16 113 3 175 -81 76 -103 92 -119 120 -119
26 0 82 28 155 76 25 16 56 25 104 29 38 3 77 10 87 16 24 12 79 14 156 4 48
-6 71 -4 103 9 22 9 53 16 68 16 15 0 37 7 49 15 24 17 29 50 42 254 6 106 10
126 27 137 10 7 24 18 29 23 17 17 113 10 131 -10z m-1746 -155 c0 -8 6 -14
14 -14 10 0 16 -22 21 -80 6 -69 10 -80 26 -80 10 0 19 -5 19 -10 0 -6 16 -26
35 -46 19 -19 42 -51 51 -72 21 -47 54 -169 54 -196 0 -39 -21 -95 -45 -125
-25 -29 -34 -32 -160 -47 -66 -8 -147 22 -209 77 -55 49 -76 85 -76 133 0 33
26 115 40 126 3 3 12 21 20 40 8 19 22 44 32 54 10 11 18 23 18 28 0 4 7 8 15
8 20 0 42 47 48 103 3 27 12 56 20 65 15 16 17 21 17 41 0 10 39 20 53 13 4
-2 7 -10 7 -18z m2651 -359 c40 -14 59 -28 94 -73 24 -31 42 -58 40 -62 -2 -3
0 -23 5 -44 7 -31 5 -41 -13 -61 -12 -14 -33 -42 -46 -63 -29 -48 -59 -66
-135 -82 -55 -11 -146 -7 -186 8 -32 13 -108 84 -120 113 -7 15 -17 27 -24 26
-6 -1 -10 4 -8 11 1 6 -7 12 -18 12 -11 0 -20 7 -20 15 0 14 12 20 33 16 5 -1
6 3 2 9 -3 5 -2 10 3 10 4 0 18 17 30 38 39 70 107 119 190 137 67 15 104 13
173 -10z m-941 -1065 c70 -22 102 -25 130 -10 24 13 37 -8 42 -70 l3 -44 -70
-3 c-38 -2 -81 -7 -95 -12 -14 -5 -84 -7 -155 -5 -72 2 -133 4 -138 4 -7 0 -2
68 9 124 l6 28 67 -6 c36 -3 80 -2 96 3 41 13 35 13 105 -9z m665 -29 c92 -15
108 -21 94 -37 -8 -10 -8 -14 0 -14 6 0 11 -4 11 -10 0 -5 -7 -10 -15 -10 -8
0 -14 -3 -14 -7 6 -35 -2 -41 -40 -36 -30 4 -48 0 -76 -17 -20 -12 -45 -20
-55 -17 -11 3 -20 1 -20 -3 0 -5 10 -11 23 -13 l22 -4 -22 -8 c-13 -4 -23 -11
-23 -16 0 -4 -17 -9 -37 -11 -35 -3 -40 0 -60 37 -50 89 -75 147 -69 160 9 25
142 27 281 6z m426 -22 c89 -23 293 -31 392 -15 45 7 47 6 58 -21 15 -37 17
-586 2 -628 -8 -23 -15 -29 -34 -27 -28 3 -103 52 -102 67 0 6 -10 23 -23 38
-13 16 -24 33 -24 38 0 6 -4 7 -10 4 -5 -3 -10 -1 -10 5 0 6 -8 13 -17 17 -10
3 -25 12 -33 19 -9 7 -42 20 -74 28 -32 9 -64 23 -71 32 -11 15 -13 15 -27 -5
-15 -21 -15 -21 -42 19 -14 22 -26 43 -26 46 0 4 -12 31 -26 60 -23 48 -27 69
-31 199 -4 94 -2 145 4 145 6 0 48 -10 94 -21z m1208 -181 c-4 -29 -8 -97 -8
-150 -1 -89 -17 -248 -27 -257 -12 -12 -17 19 -20 115 -2 58 1 127 7 153 6 25
12 81 14 123 3 87 12 110 30 85 8 -11 9 -33 4 -69z m-554 18 c19 -8 70 -18
114 -22 l81 -7 7 -36 c5 -20 8 -119 8 -220 0 -144 -3 -185 -13 -189 -7 -2 -16
5 -19 17 -3 11 -9 19 -13 16 -4 -2 -26 4 -48 15 -31 15 -52 19 -82 14 -22 -4
-40 -10 -40 -15 0 -5 -4 -9 -9 -9 -16 0 -30 55 -33 130 -3 109 1 320 7 320 3
0 21 -6 40 -14z m1205 -103 c0 -152 -44 -791 -60 -882 -6 -30 -11 -75 -11
-100 l-1 -46 -9 40 c-4 22 -11 57 -14 78 -5 32 -10 38 -25 34 -16 -4 -18 -1
-14 23 4 15 1 31 -5 34 -5 4 -8 13 -4 21 3 9 1 21 -4 28 -6 6 -11 37 -12 67
-3 50 -12 69 -34 70 -4 0 -11 -8 -14 -17 -7 -18 -22 -33 -35 -33 -17 0 -38 63
-38 115 0 42 -4 55 -15 55 -10 0 -13 -8 -9 -27 6 -31 -16 -70 -33 -60 -6 4
-13 19 -16 34 -3 16 -15 32 -29 38 -19 8 -24 20 -28 65 -3 36 -10 55 -18 55
-25 0 -32 31 -26 120 5 97 21 175 35 175 13 0 11 -78 -2 -82 -7 -2 -9 -13 -4
-27 9 -30 18 -20 22 27 4 49 22 82 45 82 11 0 18 7 18 20 0 11 5 20 10 20 6 0
10 18 10 39 0 27 5 41 16 45 21 8 44 -11 44 -35 0 -11 5 -19 10 -19 6 0 10 9
10 21 0 34 17 12 24 -31 6 -38 9 -41 34 -38 15 1 38 11 51 20 19 14 27 16 38
6 21 -17 29 0 44 94 10 64 16 78 31 78 16 0 18 -10 18 -107z m-825 57 c-3 -4
1 -13 9 -19 19 -16 26 -89 26 -276 0 -189 -2 -209 -22 -213 -15 -3 -24 34 -48
203 -20 144 -5 330 26 318 8 -3 12 -9 9 -13z m1259 -25 c17 -7 30 -17 28 -21
-2 -5 1 -10 7 -12 6 -2 11 3 11 12 0 19 21 21 38 4 10 -10 17 -10 32 0 11 6
29 12 41 12 21 0 21 0 15 -197 -12 -334 -19 -439 -77 -1038 -11 -115 -25 -234
-30 -262 -9 -47 -12 -52 -29 -43 -10 6 -32 10 -47 10 -21 0 -36 9 -51 29 -36
49 -86 81 -133 86 -24 2 -49 11 -55 20 -15 21 -22 19 -26 -7 -3 -21 -4 -21
-21 -3 -17 16 -18 32 -13 179 3 89 7 190 10 226 2 36 7 121 11 190 4 69 13
177 21 240 8 63 14 132 14 152 0 20 6 43 13 50 14 15 41 134 33 147 -3 4 -1
23 5 42 6 19 12 41 13 49 5 31 18 60 27 60 5 0 9 -5 9 -11 0 -8 5 -8 15 1 8 7
15 19 15 26 0 8 5 14 11 14 6 0 9 9 6 20 -3 13 2 25 16 35 22 15 34 14 91 -10z
m1198 -125 c-6 -125 -45 -529 -62 -640 -5 -36 -14 -114 -20 -175 -18 -172 -69
-599 -100 -830 -11 -77 -29 -212 -40 -300 -20 -160 -27 -203 -75 -515 -100
-641 -163 -939 -101 -472 4 27 2 32 -17 33 -17 1 -18 2 -4 6 23 6 22 20 -3 33
-16 9 -18 15 -10 30 5 10 10 26 10 35 0 12 -4 14 -19 5 -13 -7 -22 -7 -26 0
-3 5 -9 65 -12 132 -3 68 -6 131 -6 141 -1 11 -7 17 -17 14 -13 -3 -15 2 -12
23 3 25 1 27 -21 23 -28 -6 -44 21 -26 43 6 8 8 25 5 40 -5 20 -10 23 -20 15
-10 -9 -15 -7 -19 8 -3 14 -1 18 9 14 16 -6 18 1 5 25 -5 9 -12 25 -15 35 -3
9 -14 17 -25 17 -24 0 -30 31 -26 135 5 113 -6 191 -26 187 -13 -2 -15 11 -16
76 0 88 -8 122 -28 122 -7 0 -15 5 -17 12 -3 7 -18 12 -34 13 -18 0 -28 5 -26
13 1 7 -3 32 -9 55 -6 23 -12 53 -13 67 -1 15 -7 25 -16 25 -8 0 -15 5 -15 10
-1 6 -6 19 -11 30 -11 19 -25 153 -26 240 0 29 -2 33 -5 12 -2 -15 -9 -25 -14
-22 -12 8 -12 65 0 65 5 0 7 9 4 19 -6 22 14 64 26 57 4 -3 6 6 3 19 -2 14 -9
22 -15 18 -7 -4 -8 25 -3 93 4 54 11 158 16 229 19 268 48 522 62 545 9 16 3
-113 -11 -212 -4 -32 -4 -63 1 -70 5 -9 8 -8 8 6 0 12 5 16 15 13 12 -5 12 -1
4 21 -13 31 6 181 28 222 13 25 13 25 14 -10 l1 -35 9 30 c11 34 29 146 36
220 3 29 11 55 21 63 13 10 13 12 1 12 -11 0 -11 2 -1 9 7 4 34 4 60 -1 133
-23 174 -28 252 -29 47 0 93 3 102 6 12 5 20 1 24 -10 4 -9 10 -13 13 -8 13
17 51 32 112 43 35 7 71 16 79 21 34 19 44 6 42 -51z m-7392 -5 c0 -26 -30
-63 -57 -70 -14 -3 -23 -8 -21 -10 2 -3 58 11 123 30 121 35 158 39 90 10 -47
-19 -42 -27 9 -15 40 9 70 4 61 -10 -3 -4 -23 -17 -46 -29 -22 -12 -51 -33
-64 -47 -25 -27 -76 -36 -200 -35 -28 0 -53 -5 -57 -12 -4 -7 -8 -33 -8 -58 0
-45 -1 -46 -42 -59 -34 -11 -38 -15 -21 -18 12 -2 31 2 42 7 12 7 22 7 26 2 3
-5 -3 -12 -12 -14 -14 -4 -13 -5 5 -6 49 -2 16 -33 -55 -51 l-38 -10 45 4 c25
2 52 5 60 7 22 6 26 -63 6 -81 -9 -7 -16 -17 -16 -23 0 -7 4 -7 12 1 17 17 28
15 28 -7 0 -23 -10 -27 -85 -36 -45 -6 -57 -5 -53 6 2 7 20 18 39 25 34 12 33
13 -15 7 -56 -7 -56 4 -2 38 l31 20 -50 -7 c-49 -7 -50 -6 -32 13 22 25 22 33
-3 33 -25 0 -25 5 1 38 20 26 20 27 2 30 -28 5 -79 30 -90 44 -20 26 -22 59
-5 65 9 4 21 12 25 20 5 8 28 13 60 14 102 2 106 16 5 20 -53 2 -102 9 -108
15 -16 16 -21 90 -7 102 7 5 32 12 57 15 25 4 68 11 95 18 28 6 93 14 145 19
52 4 101 8 108 8 6 1 12 -5 12 -13z m173 -188 c-3 -6 -7 -25 -8 -43 -1 -22 3
-30 12 -27 16 6 17 -6 1 -39 -13 -27 -62 -50 -114 -54 -17 -2 -47 -9 -67 -17
-25 -11 -38 -12 -46 -4 -19 19 -13 47 10 47 28 0 61 19 53 31 -3 6 -19 7 -37
3 -31 -6 -32 -6 -14 13 9 11 14 23 10 28 -5 4 -1 5 7 3 17 -6 65 16 95 42 29
26 112 40 98 17z m-200 -994 c4 -3 1 -13 -5 -21 -10 -11 -9 -17 5 -27 10 -7
17 -26 17 -47 0 -19 3 -38 7 -41 7 -8 13 -51 16 -114 1 -24 5 -43 9 -43 5 0 8
-7 8 -15 0 -8 -7 -15 -15 -15 -8 0 -15 -5 -15 -10 0 -6 7 -13 15 -16 35 -14 2
-54 -44 -54 -27 0 -27 20 -1 27 27 7 25 17 -6 32 -19 8 -25 17 -21 31 3 11 1
23 -4 26 -5 3 -9 12 -9 20 0 12 7 14 29 9 33 -7 42 6 34 48 -5 23 -10 27 -39
27 -31 0 -34 2 -34 31 0 16 4 28 9 24 5 -3 17 5 25 17 15 21 15 23 -19 36 -41
16 -43 27 -13 59 22 23 39 29 51 16z m301 -261 c9 -27 18 -100 19 -149 1 -24
5 -43 9 -43 13 0 9 -48 -4 -53 -8 -3 -6 -6 5 -6 11 -1 17 -9 17 -26 0 -29 -12
-32 -31 -9 -12 15 -15 14 -30 -5 -9 -11 -19 -17 -23 -14 -11 11 -6 43 6 43 6
0 4 6 -7 13 -25 19 -11 41 16 24 16 -10 21 -9 29 3 15 24 12 31 -14 24 -31 -7
-56 19 -56 60 0 36 15 56 43 56 10 0 16 4 12 10 -4 6 -15 6 -32 -1 -30 -11
-29 -12 -38 23 -12 48 65 96 79 50z m106 -1154 c0 -13 7 -31 15 -42 13 -17 15
-17 40 8 14 14 28 26 32 26 3 0 21 -14 40 -30 22 -20 41 -29 53 -25 11 3 20 0
24 -10 8 -22 -4 -47 -21 -41 -8 4 -11 1 -8 -5 4 -6 -1 -9 -11 -7 -13 2 -23 -7
-33 -29 -15 -34 -45 -44 -54 -19 -4 9 -18 14 -37 14 -28 -1 -29 -2 -17 -22 14
-22 12 -56 -4 -56 -5 0 -9 12 -9 26 0 17 -6 28 -20 31 -11 3 -20 11 -20 18 0
7 -7 18 -15 25 -9 7 -12 22 -9 40 4 15 1 31 -5 34 -6 4 -11 12 -11 18 0 7 5 6
15 -2 21 -17 35 -3 35 36 0 19 5 34 10 34 6 0 10 -10 10 -22z m-22 -551 c1
-18 6 -43 11 -57 5 -14 12 -42 16 -62 3 -21 9 -39 13 -42 4 -2 68 6 142 19 74
12 137 21 139 19 2 -2 1 -9 -2 -17 -7 -18 -129 -37 -232 -37 l-74 0 6 -36 c5
-29 3 -36 -8 -32 -8 2 -15 16 -17 31 -5 43 -28 54 -62 28 -35 -25 -39 -17 -8
16 17 18 18 23 6 23 -9 0 -22 7 -29 16 -11 14 -10 18 6 31 19 13 19 15 3 27
-26 19 -24 40 3 26 34 -19 49 -6 39 31 -11 37 1 59 28 52 12 -3 19 -15 20 -36z
m262 -267 c20 -18 46 -30 62 -30 28 0 35 -13 19 -38 -4 -7 -12 -12 -17 -10
-16 4 -54 -26 -54 -44 0 -23 -22 -28 -43 -10 -9 8 -30 17 -45 18 -15 2 -22 0
-16 -4 14 -9 24 -50 17 -68 -9 -24 -20 -16 -20 15 0 19 -10 40 -31 61 -18 17
-32 36 -32 41 0 6 11 -3 26 -18 l25 -28 -6 33 c-4 19 -2 38 5 47 8 9 8 15 0
20 -6 3 -8 11 -4 16 3 6 12 5 21 -3 13 -11 18 -9 32 9 9 12 18 22 21 22 3 0
21 -13 40 -29z m-2068 -227 c18 -17 28 -37 28 -56 0 -15 5 -37 10 -47 11 -20
11 -20 -42 -82 -10 -12 -18 -27 -18 -35 0 -17 -37 -17 -43 0 -3 7 -6 5 -6 -6
-1 -19 -27 -17 -84 6 -26 11 -27 14 -20 62 6 50 40 123 74 160 28 31 68 30
101 -2z"/>
<path d="M1015 8094 c-42 -24 -90 -30 -100 -15 -9 15 -45 8 -46 -9 -3 -54 6
-124 36 -260 18 -85 37 -177 41 -205 3 -27 15 -88 25 -135 11 -47 29 -130 40
-185 11 -55 40 -196 65 -313 24 -117 45 -237 46 -265 1 -29 8 -63 15 -77 7
-14 13 -40 13 -58 0 -18 9 -65 20 -105 11 -39 34 -142 50 -227 16 -85 39 -198
50 -250 11 -52 31 -151 44 -220 29 -150 95 -446 107 -478 5 -13 9 -34 9 -46 0
-13 7 -29 15 -36 8 -7 15 -21 15 -31 0 -11 5 -19 11 -19 7 0 8 23 3 70 l-7 70
36 0 c27 0 36 5 40 21 5 17 11 20 31 15 25 -6 36 7 16 19 -5 3 -10 17 -10 31
0 31 -18 31 -30 -1 -14 -38 -43 -64 -65 -61 -16 2 -22 14 -27 52 -12 81 -15
105 -23 214 -4 58 -14 118 -22 134 -9 17 -13 41 -9 59 3 16 2 35 -4 41 -5 7
-11 32 -12 57 -3 43 -2 44 39 64 30 14 42 26 43 42 0 38 -11 53 -41 53 -17 0
-32 7 -37 18 -14 25 3 62 28 62 23 0 23 2 10 52 -10 34 -13 36 -43 31 -41 -6
-60 13 -55 59 2 24 10 36 31 46 37 18 35 46 -5 57 -42 13 -57 44 -59 123 -1
35 -6 65 -11 68 -11 7 -10 101 2 109 15 9 12 25 -5 25 -21 0 -20 -1 -50 194
-24 154 -25 170 -10 186 15 16 14 18 -6 23 -18 5 -21 11 -16 36 4 20 2 31 -4
31 -7 0 -9 11 -6 26 2 14 0 39 -6 55 -10 24 -8 32 12 53 20 22 22 29 13 53 -6
15 -16 62 -22 103 -14 100 -51 250 -62 250 -4 0 -8 -7 -8 -15 0 -8 -13 -29
-29 -45 -28 -29 -51 -39 -51 -21 0 5 -9 7 -20 4 -12 -3 -20 0 -20 6 0 26 21
50 49 56 20 4 31 14 35 31 4 15 14 24 26 24 27 0 27 43 0 92 -11 21 -17 47
-14 63 4 23 -7 83 -35 195 l-6 26 -40 -22z"/>
<path d="M4040 7702 c0 -14 -7 -17 -40 -14 -46 5 -47 1 -30 -103 6 -33 13 -82
16 -110 4 -27 8 -52 10 -54 1 -2 10 14 18 35 24 59 31 69 55 72 21 3 27 13 14
26 -4 4 -8 27 -9 50 -2 62 -13 116 -24 116 -6 0 -10 -8 -10 -18z"/>
<path d="M3814 7656 c-12 -14 -15 -31 -11 -70 8 -83 134 -886 139 -891 3 -4
226 25 247 31 8 3 12 13 9 29 -3 14 -1 25 3 25 5 0 9 -11 9 -25 0 -21 5 -25
28 -25 45 0 53 11 46 63 -4 28 -11 44 -17 40 -6 -4 -7 4 -3 21 4 15 2 26 -4
26 -5 0 -8 19 -6 42 5 58 -1 68 -41 68 -35 0 -36 -1 -30 -35 3 -21 2 -33 -4
-30 -5 4 -9 17 -9 31 0 23 -3 24 -60 24 -76 0 -109 17 -139 70 -20 36 -22 50
-17 108 8 91 8 92 18 86 4 -3 18 2 30 10 12 9 36 16 53 17 16 0 39 4 50 9 18
8 17 9 -7 9 -22 1 -35 12 -63 53 -37 55 -43 49 -26 -25 8 -35 7 -39 -16 -48
-57 -21 -56 -22 -87 164 -15 94 -29 179 -31 187 -2 8 -4 25 -4 37 -1 27 -33
27 -57 -1z"/>
<path d="M4115 7438 c4 -46 11 -88 15 -93 28 -34 51 -155 30 -155 -5 0 -10 -7
-10 -16 0 -8 -5 -12 -10 -9 -6 4 -7 11 -4 17 11 17 -79 -2 -93 -20 -18 -22
-16 -39 7 -62 15 -15 27 -18 52 -13 37 7 48 18 43 45 -2 10 0 18 6 18 5 0 9
-11 9 -25 0 -20 4 -24 25 -23 30 3 30 4 10 158 -26 192 -36 240 -51 240 -8 0
-14 5 -14 10 0 6 -5 10 -11 10 -8 0 -10 -24 -4 -82z"/>
<path d="M2900 7173 c-80 -14 -146 -26 -146 -27 -5 -4 49 -332 72 -443 8 -38
5 -38 127 -19 50 8 122 17 159 21 66 6 67 7 62 33 -2 15 -11 81 -19 147 -8 66
-20 164 -27 218 l-12 97 -36 -1 c-19 0 -100 -12 -180 -26z m174 -125 c0 -38
-5 -63 -12 -66 -8 -2 -12 11 -12 40 0 24 -5 50 -10 58 -5 8 -10 11 -10 5 -1
-5 -3 -27 -6 -49 -4 -27 -2 -41 8 -47 10 -7 10 -9 0 -9 -7 0 -11 -3 -9 -7 3
-5 -7 -9 -21 -10 -15 -1 -54 -4 -88 -6 l-60 -5 -13 42 c-12 41 -7 76 10 76 5
0 9 -12 9 -26 0 -14 4 -23 10 -19 6 3 10 -2 10 -12 0 -10 5 -25 11 -33 7 -11
9 -7 7 17 -1 18 0 33 4 33 4 1 21 5 38 10 31 9 52 -3 25 -14 -13 -5 -14 -10
-4 -28 8 -14 14 -18 17 -10 2 6 8 9 14 6 9 -6 5 48 -8 88 -5 16 1 18 76 26 12
2 15 -11 14 -60z m-120 -155 c-3 -16 1 -36 8 -46 11 -15 13 -12 10 28 -4 40
-2 45 17 45 26 0 51 -72 34 -98 -10 -18 -122 -37 -134 -24 -4 4 -10 28 -13 55
-7 44 -6 47 16 49 42 2 47 3 54 11 12 12 14 8 8 -20z"/>
<path d="M2655 6578 c-38 -5 -94 -11 -122 -14 -36 -4 -53 -10 -53 -19 0 -25
16 -25 126 -1 167 37 184 38 184 17 0 -23 -25 -29 -148 -37 -119 -8 -146 -15
-150 -41 -3 -19 1 -19 149 11 154 32 180 44 166 80 -7 18 -38 19 -152 4z"/>
<path d="M1641 4998 c-1 -24 -5 -28 -29 -28 -15 0 -37 6 -48 14 -11 8 -25 11
-30 8 -15 -11 -16 -62 -1 -62 9 0 11 -13 9 -41 -3 -31 1 -48 17 -70 17 -23 19
-30 8 -35 -11 -4 -12 -15 -6 -50 5 -25 8 -48 7 -52 -1 -4 2 -22 6 -41 6 -24 4
-36 -5 -43 -10 -7 -9 -8 5 -4 17 6 18 2 12 -33 -3 -22 -2 -41 3 -43 7 -2 24
-128 34 -248 1 -15 11 -29 25 -35 12 -5 22 -13 22 -16 0 -4 17 -3 38 2 50 12
52 11 53 -8 0 -16 1 -16 8 1 5 13 10 16 14 8 9 -13 -29 -51 -52 -54 -9 -1 -27
-2 -41 -3 -14 -2 -31 -3 -37 -4 -15 -1 -18 -67 -4 -76 11 -6 9 -44 -3 -63 -4
-7 -30 -12 -62 -12 -30 0 -54 -3 -54 -8 0 -12 64 -28 90 -22 20 5 28 1 37 -18
7 -13 13 -33 13 -43 0 -21 16 -34 25 -19 8 13 36 13 55 0 13 -9 10 -14 -14
-35 l-30 -24 40 -39 c63 -63 166 -83 149 -29 -21 68 -54 246 -60 317 -2 31
-13 90 -25 132 -20 72 -36 155 -45 223 -4 28 -14 65 -36 139 -5 16 -9 49 -9
73 0 24 -7 60 -15 80 -9 20 -18 70 -22 110 -3 41 -10 76 -14 79 -5 3 -9 17
-10 32 0 15 -4 36 -9 47 -8 18 -9 17 -9 -7z"/>
<path d="M4651 4298 c18 -136 42 -297 54 -368 14 -74 26 -182 30 -250 1 -19 5
-42 8 -50 6 -16 7 -27 37 -270 11 -85 26 -200 35 -255 8 -55 15 -118 15 -140
0 -23 5 -46 11 -52 5 -5 7 -22 3 -37 -9 -38 -43 -42 -143 -18 -47 12 -99 24
-116 27 l-30 7 28 -26 c15 -14 39 -28 52 -31 14 -3 37 -8 53 -12 15 -3 30 -7
34 -7 3 -1 10 -4 14 -8 4 -5 22 -8 40 -8 18 0 56 -9 84 -20 28 -11 49 -16 46
-12 -3 5 -6 25 -8 45 -1 21 -6 37 -10 37 -5 0 -8 6 -7 13 3 14 -1 41 -47 317
-36 214 -53 321 -60 380 -5 36 -8 57 -43 290 -12 74 -32 216 -47 315 -14 99
-29 184 -33 188 -5 4 -4 -20 0 -55z"/>
<path d="M4405 3054 c-33 -8 -71 -17 -84 -20 -20 -4 -22 -7 -10 -15 10 -7 5
-8 -18 -4 -17 3 -50 1 -73 -5 -23 -6 -54 -13 -69 -15 -14 -1 -29 -3 -33 -4 -4
0 -14 -8 -22 -17 -9 -8 -16 -11 -16 -5 0 6 -7 11 -15 11 -8 0 -15 -7 -15 -15
0 -17 -16 -20 -25 -5 -17 27 -80 0 -73 -31 2 -9 -4 -13 -17 -10 -31 5 -68 5
-95 -2 -14 -3 -38 -6 -55 -7 l-30 -1 33 -14 c17 -8 32 -16 32 -19 0 -8 -63 5
-74 15 -6 5 -20 9 -31 9 -12 0 -25 3 -28 7 -12 11 -58 12 -55 1 12 -36 151
-78 190 -57 16 8 19 8 13 -1 -5 -9 -1 -10 14 -5 19 6 72 -6 111 -25 8 -4 42
-3 75 1 33 4 68 8 78 8 10 1 15 6 12 11 -8 13 1 13 24 1 23 -13 61 -3 61 16 0
10 10 14 33 13 55 -4 96 10 89 29 -5 13 -3 14 9 4 18 -15 112 -10 117 5 2 7
12 12 22 12 10 0 21 4 24 8 6 11 -24 142 -32 141 -4 -1 -34 -7 -67 -15z"/>
<path d="M161 3028 c-41 -11 -93 -31 -115 -46 l-41 -28 -3 -1477 -2 -1477
1170 0 1170 0 -6 28 c-22 96 -128 508 -145 564 -11 37 -18 76 -15 86 7 22 73
46 79 29 4 -13 38 -13 213 -2 l130 8 1 -39 c0 -43 28 -130 50 -155 7 -8 13
-21 13 -28 0 -7 6 -25 14 -39 20 -37 40 -176 26 -180 -5 -2 -10 -13 -10 -25 0
-16 3 -18 12 -9 16 16 28 15 28 -3 0 -7 8 -19 18 -24 11 -7 12 -11 4 -11 -11
0 -11 -3 1 -14 8 -8 17 -45 20 -84 4 -39 10 -77 13 -86 6 -14 70 -16 634 -16
346 0 630 4 632 9 2 4 26 5 55 2 50 -7 146 -1 226 14 30 6 37 4 37 -9 0 -15
50 -16 553 -14 303 1 535 3 515 5 -27 3 -43 12 -57 31 -10 15 -41 38 -68 52
-26 13 -71 39 -100 57 -29 18 -54 33 -56 33 -3 0 -31 16 -63 35 -32 19 -69 35
-82 35 -14 0 -34 11 -46 24 -11 13 -73 52 -136 86 -63 35 -120 66 -126 71 -6
5 -39 24 -75 42 -35 18 -90 50 -121 70 -31 20 -60 37 -63 37 -4 0 -25 13 -48
28 -23 16 -78 48 -122 72 -44 23 -91 50 -105 60 -14 9 -56 34 -95 55 -38 21
-113 64 -165 95 -52 31 -124 73 -160 92 -36 20 -112 64 -170 98 -58 35 -125
74 -150 88 -51 28 -262 151 -330 192 -25 15 -67 40 -95 55 -74 40 -231 133
-300 177 -80 51 -89 50 -82 -9 12 -91 28 -259 47 -478 22 -254 23 -250 -66
-266 -27 -5 -72 -16 -101 -26 -29 -9 -55 -14 -59 -10 -4 4 -7 69 -8 144 l-1
138 68 -3 c61 -3 67 -1 67 16 0 15 -9 21 -46 26 -26 3 -59 6 -74 6 -31 0 -49
28 -28 42 10 6 10 10 -2 17 -8 6 -12 11 -10 13 28 18 49 26 53 20 2 -4 3 -2 1
5 -1 6 4 19 11 30 21 27 19 63 -4 63 -22 0 -33 -21 -20 -41 13 -22 11 -29 -13
-38 -32 -11 -46 21 -54 122 -4 45 -10 89 -15 98 -17 33 6 44 86 41 62 -2 75 0
75 13 0 20 -12 24 -91 33 -60 7 -65 9 -74 38 -6 17 -15 37 -22 45 -12 15 -30
129 -25 166 3 26 8 22 -223 157 -88 52 -191 114 -230 137 -38 24 -133 80 -210
125 -77 45 -184 107 -237 138 -69 41 -103 56 -118 51 -11 -4 -18 -10 -15 -15
3 -5 -9 -23 -27 -40 l-33 -32 -16 21 c-10 12 -23 21 -30 21 -14 0 -37 10 -196
89 -105 52 -168 56 -212 14 -15 -16 -33 -38 -40 -50 -8 -16 -24 -25 -51 -29
-22 -4 -40 -10 -40 -15 0 -5 -18 -9 -40 -9 -22 0 -40 5 -40 11 0 5 -5 7 -10 4
-17 -11 -37 13 -44 50 -4 19 -11 35 -16 35 -6 0 -10 9 -10 20 0 23 17 26 45 6
11 -7 34 -16 50 -19 29 -5 142 20 181 41 10 6 52 20 91 32 62 19 77 21 103 10
16 -7 30 -16 30 -21 0 -5 14 -9 30 -9 17 0 30 -4 30 -10 0 -5 6 -10 14 -10 7
0 19 -7 26 -15 9 -11 17 -12 31 -4 25 13 24 25 -4 49 -22 20 -253 165 -354
223 -26 15 -86 52 -133 82 -47 29 -98 56 -114 60 -17 4 -46 23 -65 42 -46 43
-147 104 -180 107 -14 1 -59 -6 -100 -16z m-71 -330 c0 29 28 9 33 -24 3 -20
13 -41 22 -48 17 -13 23 -86 13 -161 -4 -27 -5 -44 -2 -37 3 6 12 12 20 12 16
0 20 -79 4 -81 -5 -1 -14 -3 -20 -4 -5 -1 -12 -3 -15 -4 -15 -4 -17 4 -17 54
-1 31 -7 74 -14 96 -8 22 -15 59 -16 82 0 23 -8 53 -18 67 -9 14 -14 34 -12
44 3 15 6 16 13 5 6 -10 9 -10 9 -1z m1417 -619 c48 -18 79 -22 193 -22 l137
-1 -3 -28 c-7 -58 -16 -64 -129 -82 -71 -12 -110 -14 -118 -8 -7 6 -30 14 -52
18 -22 4 -53 18 -70 31 -16 13 -43 34 -59 46 -25 20 -27 26 -17 45 15 28 44
28 118 1z m-1154 -902 c15 -17 27 -35 27 -39 0 -5 5 -6 10 -3 6 4 10 -6 10
-24 0 -16 -5 -31 -12 -33 -14 -5 16 -78 32 -78 5 0 10 -12 12 -27 2 -22 11
-30 38 -38 28 -8 35 -15 34 -33 -1 -12 -4 -25 -7 -29 -9 -8 -37 17 -37 33 0 8
-5 14 -10 14 -12 0 -32 -48 -25 -60 5 -8 -19 -88 -36 -123 -6 -11 -4 -25 5
-40 22 -35 37 -116 34 -189 -2 -38 -6 -68 -10 -68 -11 0 2 -101 17 -135 7 -16
15 -75 17 -130 2 -82 0 -100 -11 -100 -8 0 -18 15 -23 35 -5 19 -12 42 -15 50
-7 16 -8 19 -22 160 -9 101 -19 148 -32 165 -4 6 -8 29 -7 50 1 22 -4 72 -10
110 -38 222 -44 269 -47 355 -2 52 -8 117 -13 143 -16 80 23 97 81 34z m404
-469 c16 -10 38 -18 50 -18 21 0 43 -25 43 -49 0 -6 -18 -14 -40 -17 -36 -6
-40 -10 -46 -41 -4 -19 -2 -72 3 -117 6 -44 8 -85 6 -89 -8 -14 -31 26 -31 54
0 15 -6 48 -15 75 -24 75 -39 181 -31 221 6 33 8 35 20 18 8 -10 26 -27 41
-37z"/>
<path d="M2525 354 c-40 -43 -59 -115 -46 -176 15 -68 43 -130 72 -156 26 -25
81 -29 99 -7 21 25 15 87 -10 107 -27 22 -73 23 -90 3 -20 -24 -30 -17 -30 20
0 42 29 75 65 75 29 0 29 -2 13 90 -14 80 -31 90 -73 44z"/>
<path d="M2294 328 c16 -80 27 -108 44 -108 24 -1 57 -30 77 -68 17 -35 13
-54 -7 -34 -20 20 -47 14 -54 -12 -8 -31 30 -106 54 -106 10 0 26 14 36 31 14
25 17 42 11 82 -9 72 -57 167 -105 211 -50 45 -65 46 -56 4z"/>
</g>
</svg>
